G04 #@! TF.GenerationSoftware,KiCad,Pcbnew,(5.0.2)-1*
G04 #@! TF.CreationDate,2020-02-13T22:52:32+01:00*
G04 #@! TF.ProjectId,Nixie_Clock,4e697869-655f-4436-9c6f-636b2e6b6963,rev?*
G04 #@! TF.SameCoordinates,Original*
G04 #@! TF.FileFunction,Paste,Top*
G04 #@! TF.FilePolarity,Positive*
%FSLAX46Y46*%
G04 Gerber Fmt 4.6, Leading zero omitted, Abs format (unit mm)*
G04 Created by KiCad (PCBNEW (5.0.2)-1) date 13.02.2020 22:52:32*
%MOMM*%
%LPD*%
G01*
G04 APERTURE LIST*
%ADD10C,0.100000*%
%ADD11C,0.950000*%
G04 APERTURE END LIST*
D10*
G04 #@! TO.C,R11*
G36*
X215260779Y-106601144D02*
X215283834Y-106604563D01*
X215306443Y-106610227D01*
X215328387Y-106618079D01*
X215349457Y-106628044D01*
X215369448Y-106640026D01*
X215388168Y-106653910D01*
X215405438Y-106669562D01*
X215421090Y-106686832D01*
X215434974Y-106705552D01*
X215446956Y-106725543D01*
X215456921Y-106746613D01*
X215464773Y-106768557D01*
X215470437Y-106791166D01*
X215473856Y-106814221D01*
X215475000Y-106837500D01*
X215475000Y-107412500D01*
X215473856Y-107435779D01*
X215470437Y-107458834D01*
X215464773Y-107481443D01*
X215456921Y-107503387D01*
X215446956Y-107524457D01*
X215434974Y-107544448D01*
X215421090Y-107563168D01*
X215405438Y-107580438D01*
X215388168Y-107596090D01*
X215369448Y-107609974D01*
X215349457Y-107621956D01*
X215328387Y-107631921D01*
X215306443Y-107639773D01*
X215283834Y-107645437D01*
X215260779Y-107648856D01*
X215237500Y-107650000D01*
X214762500Y-107650000D01*
X214739221Y-107648856D01*
X214716166Y-107645437D01*
X214693557Y-107639773D01*
X214671613Y-107631921D01*
X214650543Y-107621956D01*
X214630552Y-107609974D01*
X214611832Y-107596090D01*
X214594562Y-107580438D01*
X214578910Y-107563168D01*
X214565026Y-107544448D01*
X214553044Y-107524457D01*
X214543079Y-107503387D01*
X214535227Y-107481443D01*
X214529563Y-107458834D01*
X214526144Y-107435779D01*
X214525000Y-107412500D01*
X214525000Y-106837500D01*
X214526144Y-106814221D01*
X214529563Y-106791166D01*
X214535227Y-106768557D01*
X214543079Y-106746613D01*
X214553044Y-106725543D01*
X214565026Y-106705552D01*
X214578910Y-106686832D01*
X214594562Y-106669562D01*
X214611832Y-106653910D01*
X214630552Y-106640026D01*
X214650543Y-106628044D01*
X214671613Y-106618079D01*
X214693557Y-106610227D01*
X214716166Y-106604563D01*
X214739221Y-106601144D01*
X214762500Y-106600000D01*
X215237500Y-106600000D01*
X215260779Y-106601144D01*
X215260779Y-106601144D01*
G37*
D11*
X215000000Y-107125000D03*
D10*
G36*
X215260779Y-108351144D02*
X215283834Y-108354563D01*
X215306443Y-108360227D01*
X215328387Y-108368079D01*
X215349457Y-108378044D01*
X215369448Y-108390026D01*
X215388168Y-108403910D01*
X215405438Y-108419562D01*
X215421090Y-108436832D01*
X215434974Y-108455552D01*
X215446956Y-108475543D01*
X215456921Y-108496613D01*
X215464773Y-108518557D01*
X215470437Y-108541166D01*
X215473856Y-108564221D01*
X215475000Y-108587500D01*
X215475000Y-109162500D01*
X215473856Y-109185779D01*
X215470437Y-109208834D01*
X215464773Y-109231443D01*
X215456921Y-109253387D01*
X215446956Y-109274457D01*
X215434974Y-109294448D01*
X215421090Y-109313168D01*
X215405438Y-109330438D01*
X215388168Y-109346090D01*
X215369448Y-109359974D01*
X215349457Y-109371956D01*
X215328387Y-109381921D01*
X215306443Y-109389773D01*
X215283834Y-109395437D01*
X215260779Y-109398856D01*
X215237500Y-109400000D01*
X214762500Y-109400000D01*
X214739221Y-109398856D01*
X214716166Y-109395437D01*
X214693557Y-109389773D01*
X214671613Y-109381921D01*
X214650543Y-109371956D01*
X214630552Y-109359974D01*
X214611832Y-109346090D01*
X214594562Y-109330438D01*
X214578910Y-109313168D01*
X214565026Y-109294448D01*
X214553044Y-109274457D01*
X214543079Y-109253387D01*
X214535227Y-109231443D01*
X214529563Y-109208834D01*
X214526144Y-109185779D01*
X214525000Y-109162500D01*
X214525000Y-108587500D01*
X214526144Y-108564221D01*
X214529563Y-108541166D01*
X214535227Y-108518557D01*
X214543079Y-108496613D01*
X214553044Y-108475543D01*
X214565026Y-108455552D01*
X214578910Y-108436832D01*
X214594562Y-108419562D01*
X214611832Y-108403910D01*
X214630552Y-108390026D01*
X214650543Y-108378044D01*
X214671613Y-108368079D01*
X214693557Y-108360227D01*
X214716166Y-108354563D01*
X214739221Y-108351144D01*
X214762500Y-108350000D01*
X215237500Y-108350000D01*
X215260779Y-108351144D01*
X215260779Y-108351144D01*
G37*
D11*
X215000000Y-108875000D03*
G04 #@! TD*
D10*
G04 #@! TO.C,R12*
G36*
X185260779Y-108351144D02*
X185283834Y-108354563D01*
X185306443Y-108360227D01*
X185328387Y-108368079D01*
X185349457Y-108378044D01*
X185369448Y-108390026D01*
X185388168Y-108403910D01*
X185405438Y-108419562D01*
X185421090Y-108436832D01*
X185434974Y-108455552D01*
X185446956Y-108475543D01*
X185456921Y-108496613D01*
X185464773Y-108518557D01*
X185470437Y-108541166D01*
X185473856Y-108564221D01*
X185475000Y-108587500D01*
X185475000Y-109162500D01*
X185473856Y-109185779D01*
X185470437Y-109208834D01*
X185464773Y-109231443D01*
X185456921Y-109253387D01*
X185446956Y-109274457D01*
X185434974Y-109294448D01*
X185421090Y-109313168D01*
X185405438Y-109330438D01*
X185388168Y-109346090D01*
X185369448Y-109359974D01*
X185349457Y-109371956D01*
X185328387Y-109381921D01*
X185306443Y-109389773D01*
X185283834Y-109395437D01*
X185260779Y-109398856D01*
X185237500Y-109400000D01*
X184762500Y-109400000D01*
X184739221Y-109398856D01*
X184716166Y-109395437D01*
X184693557Y-109389773D01*
X184671613Y-109381921D01*
X184650543Y-109371956D01*
X184630552Y-109359974D01*
X184611832Y-109346090D01*
X184594562Y-109330438D01*
X184578910Y-109313168D01*
X184565026Y-109294448D01*
X184553044Y-109274457D01*
X184543079Y-109253387D01*
X184535227Y-109231443D01*
X184529563Y-109208834D01*
X184526144Y-109185779D01*
X184525000Y-109162500D01*
X184525000Y-108587500D01*
X184526144Y-108564221D01*
X184529563Y-108541166D01*
X184535227Y-108518557D01*
X184543079Y-108496613D01*
X184553044Y-108475543D01*
X184565026Y-108455552D01*
X184578910Y-108436832D01*
X184594562Y-108419562D01*
X184611832Y-108403910D01*
X184630552Y-108390026D01*
X184650543Y-108378044D01*
X184671613Y-108368079D01*
X184693557Y-108360227D01*
X184716166Y-108354563D01*
X184739221Y-108351144D01*
X184762500Y-108350000D01*
X185237500Y-108350000D01*
X185260779Y-108351144D01*
X185260779Y-108351144D01*
G37*
D11*
X185000000Y-108875000D03*
D10*
G36*
X185260779Y-106601144D02*
X185283834Y-106604563D01*
X185306443Y-106610227D01*
X185328387Y-106618079D01*
X185349457Y-106628044D01*
X185369448Y-106640026D01*
X185388168Y-106653910D01*
X185405438Y-106669562D01*
X185421090Y-106686832D01*
X185434974Y-106705552D01*
X185446956Y-106725543D01*
X185456921Y-106746613D01*
X185464773Y-106768557D01*
X185470437Y-106791166D01*
X185473856Y-106814221D01*
X185475000Y-106837500D01*
X185475000Y-107412500D01*
X185473856Y-107435779D01*
X185470437Y-107458834D01*
X185464773Y-107481443D01*
X185456921Y-107503387D01*
X185446956Y-107524457D01*
X185434974Y-107544448D01*
X185421090Y-107563168D01*
X185405438Y-107580438D01*
X185388168Y-107596090D01*
X185369448Y-107609974D01*
X185349457Y-107621956D01*
X185328387Y-107631921D01*
X185306443Y-107639773D01*
X185283834Y-107645437D01*
X185260779Y-107648856D01*
X185237500Y-107650000D01*
X184762500Y-107650000D01*
X184739221Y-107648856D01*
X184716166Y-107645437D01*
X184693557Y-107639773D01*
X184671613Y-107631921D01*
X184650543Y-107621956D01*
X184630552Y-107609974D01*
X184611832Y-107596090D01*
X184594562Y-107580438D01*
X184578910Y-107563168D01*
X184565026Y-107544448D01*
X184553044Y-107524457D01*
X184543079Y-107503387D01*
X184535227Y-107481443D01*
X184529563Y-107458834D01*
X184526144Y-107435779D01*
X184525000Y-107412500D01*
X184525000Y-106837500D01*
X184526144Y-106814221D01*
X184529563Y-106791166D01*
X184535227Y-106768557D01*
X184543079Y-106746613D01*
X184553044Y-106725543D01*
X184565026Y-106705552D01*
X184578910Y-106686832D01*
X184594562Y-106669562D01*
X184611832Y-106653910D01*
X184630552Y-106640026D01*
X184650543Y-106628044D01*
X184671613Y-106618079D01*
X184693557Y-106610227D01*
X184716166Y-106604563D01*
X184739221Y-106601144D01*
X184762500Y-106600000D01*
X185237500Y-106600000D01*
X185260779Y-106601144D01*
X185260779Y-106601144D01*
G37*
D11*
X185000000Y-107125000D03*
G04 #@! TD*
D10*
G04 #@! TO.C,R13*
G36*
X145260779Y-108351144D02*
X145283834Y-108354563D01*
X145306443Y-108360227D01*
X145328387Y-108368079D01*
X145349457Y-108378044D01*
X145369448Y-108390026D01*
X145388168Y-108403910D01*
X145405438Y-108419562D01*
X145421090Y-108436832D01*
X145434974Y-108455552D01*
X145446956Y-108475543D01*
X145456921Y-108496613D01*
X145464773Y-108518557D01*
X145470437Y-108541166D01*
X145473856Y-108564221D01*
X145475000Y-108587500D01*
X145475000Y-109162500D01*
X145473856Y-109185779D01*
X145470437Y-109208834D01*
X145464773Y-109231443D01*
X145456921Y-109253387D01*
X145446956Y-109274457D01*
X145434974Y-109294448D01*
X145421090Y-109313168D01*
X145405438Y-109330438D01*
X145388168Y-109346090D01*
X145369448Y-109359974D01*
X145349457Y-109371956D01*
X145328387Y-109381921D01*
X145306443Y-109389773D01*
X145283834Y-109395437D01*
X145260779Y-109398856D01*
X145237500Y-109400000D01*
X144762500Y-109400000D01*
X144739221Y-109398856D01*
X144716166Y-109395437D01*
X144693557Y-109389773D01*
X144671613Y-109381921D01*
X144650543Y-109371956D01*
X144630552Y-109359974D01*
X144611832Y-109346090D01*
X144594562Y-109330438D01*
X144578910Y-109313168D01*
X144565026Y-109294448D01*
X144553044Y-109274457D01*
X144543079Y-109253387D01*
X144535227Y-109231443D01*
X144529563Y-109208834D01*
X144526144Y-109185779D01*
X144525000Y-109162500D01*
X144525000Y-108587500D01*
X144526144Y-108564221D01*
X144529563Y-108541166D01*
X144535227Y-108518557D01*
X144543079Y-108496613D01*
X144553044Y-108475543D01*
X144565026Y-108455552D01*
X144578910Y-108436832D01*
X144594562Y-108419562D01*
X144611832Y-108403910D01*
X144630552Y-108390026D01*
X144650543Y-108378044D01*
X144671613Y-108368079D01*
X144693557Y-108360227D01*
X144716166Y-108354563D01*
X144739221Y-108351144D01*
X144762500Y-108350000D01*
X145237500Y-108350000D01*
X145260779Y-108351144D01*
X145260779Y-108351144D01*
G37*
D11*
X145000000Y-108875000D03*
D10*
G36*
X145260779Y-106601144D02*
X145283834Y-106604563D01*
X145306443Y-106610227D01*
X145328387Y-106618079D01*
X145349457Y-106628044D01*
X145369448Y-106640026D01*
X145388168Y-106653910D01*
X145405438Y-106669562D01*
X145421090Y-106686832D01*
X145434974Y-106705552D01*
X145446956Y-106725543D01*
X145456921Y-106746613D01*
X145464773Y-106768557D01*
X145470437Y-106791166D01*
X145473856Y-106814221D01*
X145475000Y-106837500D01*
X145475000Y-107412500D01*
X145473856Y-107435779D01*
X145470437Y-107458834D01*
X145464773Y-107481443D01*
X145456921Y-107503387D01*
X145446956Y-107524457D01*
X145434974Y-107544448D01*
X145421090Y-107563168D01*
X145405438Y-107580438D01*
X145388168Y-107596090D01*
X145369448Y-107609974D01*
X145349457Y-107621956D01*
X145328387Y-107631921D01*
X145306443Y-107639773D01*
X145283834Y-107645437D01*
X145260779Y-107648856D01*
X145237500Y-107650000D01*
X144762500Y-107650000D01*
X144739221Y-107648856D01*
X144716166Y-107645437D01*
X144693557Y-107639773D01*
X144671613Y-107631921D01*
X144650543Y-107621956D01*
X144630552Y-107609974D01*
X144611832Y-107596090D01*
X144594562Y-107580438D01*
X144578910Y-107563168D01*
X144565026Y-107544448D01*
X144553044Y-107524457D01*
X144543079Y-107503387D01*
X144535227Y-107481443D01*
X144529563Y-107458834D01*
X144526144Y-107435779D01*
X144525000Y-107412500D01*
X144525000Y-106837500D01*
X144526144Y-106814221D01*
X144529563Y-106791166D01*
X144535227Y-106768557D01*
X144543079Y-106746613D01*
X144553044Y-106725543D01*
X144565026Y-106705552D01*
X144578910Y-106686832D01*
X144594562Y-106669562D01*
X144611832Y-106653910D01*
X144630552Y-106640026D01*
X144650543Y-106628044D01*
X144671613Y-106618079D01*
X144693557Y-106610227D01*
X144716166Y-106604563D01*
X144739221Y-106601144D01*
X144762500Y-106600000D01*
X145237500Y-106600000D01*
X145260779Y-106601144D01*
X145260779Y-106601144D01*
G37*
D11*
X145000000Y-107125000D03*
G04 #@! TD*
D10*
G04 #@! TO.C,R14*
G36*
X115260779Y-106601144D02*
X115283834Y-106604563D01*
X115306443Y-106610227D01*
X115328387Y-106618079D01*
X115349457Y-106628044D01*
X115369448Y-106640026D01*
X115388168Y-106653910D01*
X115405438Y-106669562D01*
X115421090Y-106686832D01*
X115434974Y-106705552D01*
X115446956Y-106725543D01*
X115456921Y-106746613D01*
X115464773Y-106768557D01*
X115470437Y-106791166D01*
X115473856Y-106814221D01*
X115475000Y-106837500D01*
X115475000Y-107412500D01*
X115473856Y-107435779D01*
X115470437Y-107458834D01*
X115464773Y-107481443D01*
X115456921Y-107503387D01*
X115446956Y-107524457D01*
X115434974Y-107544448D01*
X115421090Y-107563168D01*
X115405438Y-107580438D01*
X115388168Y-107596090D01*
X115369448Y-107609974D01*
X115349457Y-107621956D01*
X115328387Y-107631921D01*
X115306443Y-107639773D01*
X115283834Y-107645437D01*
X115260779Y-107648856D01*
X115237500Y-107650000D01*
X114762500Y-107650000D01*
X114739221Y-107648856D01*
X114716166Y-107645437D01*
X114693557Y-107639773D01*
X114671613Y-107631921D01*
X114650543Y-107621956D01*
X114630552Y-107609974D01*
X114611832Y-107596090D01*
X114594562Y-107580438D01*
X114578910Y-107563168D01*
X114565026Y-107544448D01*
X114553044Y-107524457D01*
X114543079Y-107503387D01*
X114535227Y-107481443D01*
X114529563Y-107458834D01*
X114526144Y-107435779D01*
X114525000Y-107412500D01*
X114525000Y-106837500D01*
X114526144Y-106814221D01*
X114529563Y-106791166D01*
X114535227Y-106768557D01*
X114543079Y-106746613D01*
X114553044Y-106725543D01*
X114565026Y-106705552D01*
X114578910Y-106686832D01*
X114594562Y-106669562D01*
X114611832Y-106653910D01*
X114630552Y-106640026D01*
X114650543Y-106628044D01*
X114671613Y-106618079D01*
X114693557Y-106610227D01*
X114716166Y-106604563D01*
X114739221Y-106601144D01*
X114762500Y-106600000D01*
X115237500Y-106600000D01*
X115260779Y-106601144D01*
X115260779Y-106601144D01*
G37*
D11*
X115000000Y-107125000D03*
D10*
G36*
X115260779Y-108351144D02*
X115283834Y-108354563D01*
X115306443Y-108360227D01*
X115328387Y-108368079D01*
X115349457Y-108378044D01*
X115369448Y-108390026D01*
X115388168Y-108403910D01*
X115405438Y-108419562D01*
X115421090Y-108436832D01*
X115434974Y-108455552D01*
X115446956Y-108475543D01*
X115456921Y-108496613D01*
X115464773Y-108518557D01*
X115470437Y-108541166D01*
X115473856Y-108564221D01*
X115475000Y-108587500D01*
X115475000Y-109162500D01*
X115473856Y-109185779D01*
X115470437Y-109208834D01*
X115464773Y-109231443D01*
X115456921Y-109253387D01*
X115446956Y-109274457D01*
X115434974Y-109294448D01*
X115421090Y-109313168D01*
X115405438Y-109330438D01*
X115388168Y-109346090D01*
X115369448Y-109359974D01*
X115349457Y-109371956D01*
X115328387Y-109381921D01*
X115306443Y-109389773D01*
X115283834Y-109395437D01*
X115260779Y-109398856D01*
X115237500Y-109400000D01*
X114762500Y-109400000D01*
X114739221Y-109398856D01*
X114716166Y-109395437D01*
X114693557Y-109389773D01*
X114671613Y-109381921D01*
X114650543Y-109371956D01*
X114630552Y-109359974D01*
X114611832Y-109346090D01*
X114594562Y-109330438D01*
X114578910Y-109313168D01*
X114565026Y-109294448D01*
X114553044Y-109274457D01*
X114543079Y-109253387D01*
X114535227Y-109231443D01*
X114529563Y-109208834D01*
X114526144Y-109185779D01*
X114525000Y-109162500D01*
X114525000Y-108587500D01*
X114526144Y-108564221D01*
X114529563Y-108541166D01*
X114535227Y-108518557D01*
X114543079Y-108496613D01*
X114553044Y-108475543D01*
X114565026Y-108455552D01*
X114578910Y-108436832D01*
X114594562Y-108419562D01*
X114611832Y-108403910D01*
X114630552Y-108390026D01*
X114650543Y-108378044D01*
X114671613Y-108368079D01*
X114693557Y-108360227D01*
X114716166Y-108354563D01*
X114739221Y-108351144D01*
X114762500Y-108350000D01*
X115237500Y-108350000D01*
X115260779Y-108351144D01*
X115260779Y-108351144D01*
G37*
D11*
X115000000Y-108875000D03*
G04 #@! TD*
M02*
