G04 #@! TF.GenerationSoftware,KiCad,Pcbnew,(5.0.2)-1*
G04 #@! TF.CreationDate,2020-02-13T22:52:32+01:00*
G04 #@! TF.ProjectId,Nixie_Clock,4e697869-655f-4436-9c6f-636b2e6b6963,rev?*
G04 #@! TF.SameCoordinates,Original*
G04 #@! TF.FileFunction,Legend,Top*
G04 #@! TF.FilePolarity,Positive*
%FSLAX46Y46*%
G04 Gerber Fmt 4.6, Leading zero omitted, Abs format (unit mm)*
G04 Created by KiCad (PCBNEW (5.0.2)-1) date 13.02.2020 22:52:32*
%MOMM*%
%LPD*%
G01*
G04 APERTURE LIST*
%ADD10C,0.120000*%
%ADD11C,0.150000*%
G04 APERTURE END LIST*
D10*
G04 #@! TO.C,R11*
X215510000Y-107828733D02*
X215510000Y-108171267D01*
X214490000Y-107828733D02*
X214490000Y-108171267D01*
G04 #@! TO.C,R12*
X184490000Y-107828733D02*
X184490000Y-108171267D01*
X185510000Y-107828733D02*
X185510000Y-108171267D01*
G04 #@! TO.C,R13*
X144490000Y-107828733D02*
X144490000Y-108171267D01*
X145510000Y-107828733D02*
X145510000Y-108171267D01*
G04 #@! TO.C,R14*
X115510000Y-107828733D02*
X115510000Y-108171267D01*
X114490000Y-107828733D02*
X114490000Y-108171267D01*
G04 #@! TO.C,R11*
D11*
X216882380Y-108642857D02*
X216406190Y-108976190D01*
X216882380Y-109214285D02*
X215882380Y-109214285D01*
X215882380Y-108833333D01*
X215930000Y-108738095D01*
X215977619Y-108690476D01*
X216072857Y-108642857D01*
X216215714Y-108642857D01*
X216310952Y-108690476D01*
X216358571Y-108738095D01*
X216406190Y-108833333D01*
X216406190Y-109214285D01*
X216882380Y-107690476D02*
X216882380Y-108261904D01*
X216882380Y-107976190D02*
X215882380Y-107976190D01*
X216025238Y-108071428D01*
X216120476Y-108166666D01*
X216168095Y-108261904D01*
X216882380Y-106738095D02*
X216882380Y-107309523D01*
X216882380Y-107023809D02*
X215882380Y-107023809D01*
X216025238Y-107119047D01*
X216120476Y-107214285D01*
X216168095Y-107309523D01*
G04 #@! TO.C,R12*
X186882380Y-108642857D02*
X186406190Y-108976190D01*
X186882380Y-109214285D02*
X185882380Y-109214285D01*
X185882380Y-108833333D01*
X185930000Y-108738095D01*
X185977619Y-108690476D01*
X186072857Y-108642857D01*
X186215714Y-108642857D01*
X186310952Y-108690476D01*
X186358571Y-108738095D01*
X186406190Y-108833333D01*
X186406190Y-109214285D01*
X186882380Y-107690476D02*
X186882380Y-108261904D01*
X186882380Y-107976190D02*
X185882380Y-107976190D01*
X186025238Y-108071428D01*
X186120476Y-108166666D01*
X186168095Y-108261904D01*
X185977619Y-107309523D02*
X185930000Y-107261904D01*
X185882380Y-107166666D01*
X185882380Y-106928571D01*
X185930000Y-106833333D01*
X185977619Y-106785714D01*
X186072857Y-106738095D01*
X186168095Y-106738095D01*
X186310952Y-106785714D01*
X186882380Y-107357142D01*
X186882380Y-106738095D01*
G04 #@! TO.C,R13*
X146882380Y-108642857D02*
X146406190Y-108976190D01*
X146882380Y-109214285D02*
X145882380Y-109214285D01*
X145882380Y-108833333D01*
X145930000Y-108738095D01*
X145977619Y-108690476D01*
X146072857Y-108642857D01*
X146215714Y-108642857D01*
X146310952Y-108690476D01*
X146358571Y-108738095D01*
X146406190Y-108833333D01*
X146406190Y-109214285D01*
X146882380Y-107690476D02*
X146882380Y-108261904D01*
X146882380Y-107976190D02*
X145882380Y-107976190D01*
X146025238Y-108071428D01*
X146120476Y-108166666D01*
X146168095Y-108261904D01*
X145882380Y-107357142D02*
X145882380Y-106738095D01*
X146263333Y-107071428D01*
X146263333Y-106928571D01*
X146310952Y-106833333D01*
X146358571Y-106785714D01*
X146453809Y-106738095D01*
X146691904Y-106738095D01*
X146787142Y-106785714D01*
X146834761Y-106833333D01*
X146882380Y-106928571D01*
X146882380Y-107214285D01*
X146834761Y-107309523D01*
X146787142Y-107357142D01*
G04 #@! TO.C,R14*
X116882380Y-108642857D02*
X116406190Y-108976190D01*
X116882380Y-109214285D02*
X115882380Y-109214285D01*
X115882380Y-108833333D01*
X115930000Y-108738095D01*
X115977619Y-108690476D01*
X116072857Y-108642857D01*
X116215714Y-108642857D01*
X116310952Y-108690476D01*
X116358571Y-108738095D01*
X116406190Y-108833333D01*
X116406190Y-109214285D01*
X116882380Y-107690476D02*
X116882380Y-108261904D01*
X116882380Y-107976190D02*
X115882380Y-107976190D01*
X116025238Y-108071428D01*
X116120476Y-108166666D01*
X116168095Y-108261904D01*
X116215714Y-106833333D02*
X116882380Y-106833333D01*
X115834761Y-107071428D02*
X116549047Y-107309523D01*
X116549047Y-106690476D01*
G04 #@! TD*
M02*
