M48
;DRILL file {KiCad (5.0.2)-1} date 13.02.2020 22:52:51
;FORMAT={-:-/ absolute / inch / decimal}
FMAT,2
INCH,TZ
T1C0.0118
T2C0.0157
T3C0.0197
T4C0.0315
T5C0.0330
T6C0.0394
T7C0.0591
%
G90
G05
T1
X7.1683Y-3.3593
X7.3071Y-3.4016
T2
X5.1181Y-5.2874
X5.1181Y-5.3937
X5.4606Y-5.7165
X5.7323Y-3.8465
X5.7323Y-3.9016
X5.7323Y-4.0079
X5.7323Y-4.063
X5.8228Y-3.5079
X5.8228Y-3.6102
X5.8228Y-3.6614
X5.8228Y-3.7638
X5.8228Y-3.8189
X5.8228Y-3.9213
X5.8228Y-3.9764
X5.8228Y-4.0787
X5.9291Y-3.3583
X6.2756Y-5.2874
X6.2756Y-5.3819
X6.4331Y-5.7717
X6.5591Y-3.4213
X6.5984Y-5.
X6.5984Y-5.2874
X6.5984Y-5.3819
X6.6457Y-4.2835
X6.6929Y-5.
X6.6929Y-5.2874
X6.6929Y-5.3819
X6.7126Y-3.4213
X6.9724Y-3.4331
X6.9724Y-3.4331
X6.9724Y-3.4331
X6.9724Y-3.4685
X7.0709Y-3.4331
X7.0709Y-3.4685
X7.2559Y-3.5197
X7.4488Y-3.4291
X7.5433Y-3.3504
X7.6102Y-3.311
X7.7165Y-3.8976
X7.7165Y-3.9331
X7.7795Y-3.2638
X7.7795Y-3.3465
X7.7795Y-3.4213
X7.7795Y-3.5
X7.7795Y-3.5787
X7.7795Y-3.6575
X7.874Y-5.2874
X7.874Y-5.3819
T3
X5.5197Y-4.2175
X5.5591Y-4.2175
X5.5984Y-4.2175
X5.6654Y-5.9976
X6.0866Y-3.4291
X6.0866Y-3.5394
X6.0984Y-3.9173
T4
X5.8457Y-5.6449
X5.8457Y-5.9449
X5.9457Y-5.6449
X5.9457Y-5.9449
X6.0457Y-5.6449
X6.0457Y-5.9449
X6.1457Y-5.6449
X6.1457Y-5.9449
X6.2457Y-5.6449
X6.2457Y-5.9449
X6.3457Y-5.6449
X6.3457Y-5.9449
X6.4457Y-5.6449
X6.4457Y-5.9449
X6.5457Y-5.6449
X6.5457Y-5.9449
X6.6457Y-5.6449
X6.6457Y-5.9449
X6.7457Y-5.6449
X6.7457Y-5.9449
X6.8457Y-5.6449
X6.8457Y-5.9449
X6.9457Y-5.6449
X6.9457Y-5.9449
X7.0457Y-5.6449
X7.0457Y-5.9449
X7.1457Y-5.6449
X7.1457Y-5.9449
X5.8787Y-6.1339
X6.0709Y-6.1339
X5.3591Y-5.1724
X5.3591Y-5.4724
X5.4591Y-5.1724
X5.4591Y-5.4724
X5.5591Y-5.1724
X5.5591Y-5.4724
X5.6591Y-5.1724
X5.6591Y-5.4724
X5.7591Y-5.1724
X5.7591Y-5.4724
X5.8591Y-5.1724
X5.8591Y-5.4724
X5.9591Y-5.1724
X5.9591Y-5.4724
X6.0591Y-5.1724
X6.0591Y-5.4724
X6.9339Y-5.1724
X6.9339Y-5.4724
X7.0339Y-5.1724
X7.0339Y-5.4724
X7.1339Y-5.1724
X7.1339Y-5.4724
X7.2339Y-5.1724
X7.2339Y-5.4724
X7.3339Y-5.1724
X7.3339Y-5.4724
X7.4339Y-5.1724
X7.4339Y-5.4724
X7.5339Y-5.1724
X7.5339Y-5.4724
X7.6339Y-5.1724
X7.6339Y-5.4724
X4.178Y-5.1724
X4.178Y-5.4724
X4.278Y-5.1724
X4.278Y-5.4724
X4.378Y-5.1724
X4.378Y-5.4724
X4.478Y-5.1724
X4.478Y-5.4724
X4.578Y-5.1724
X4.578Y-5.4724
X4.678Y-5.1724
X4.678Y-5.4724
X4.778Y-5.1724
X4.778Y-5.4724
X4.878Y-5.1724
X4.878Y-5.4724
X8.115Y-5.1724
X8.115Y-5.4724
X8.215Y-5.1724
X8.215Y-5.4724
X8.315Y-5.1724
X8.315Y-5.4724
X8.415Y-5.1724
X8.415Y-5.4724
X8.515Y-5.1724
X8.515Y-5.4724
X8.615Y-5.1724
X8.615Y-5.4724
X8.715Y-5.1724
X8.715Y-5.4724
X8.815Y-5.1724
X8.815Y-5.4724
T5
X4.2857Y-4.6951
X4.2998Y-4.8108
X4.3271Y-4.586
X4.366Y-4.9068
X4.4144Y-4.5087
X4.4693Y-4.961
X4.5276Y-4.4808
X4.5859Y-4.961
X4.6408Y-4.5087
X4.6892Y-4.9068
X4.7281Y-4.586
X4.7554Y-4.8108
X4.7695Y-4.6951
X7.0416Y-4.6951
X7.0557Y-4.8108
X7.083Y-4.586
X7.1219Y-4.9068
X7.1703Y-4.5087
X7.2252Y-4.961
X7.2835Y-4.4808
X7.3418Y-4.961
X7.3967Y-4.5087
X7.4451Y-4.9068
X7.484Y-4.586
X7.5113Y-4.8108
X7.5254Y-4.6951
X8.2227Y-4.6951
X8.2368Y-4.8108
X8.2641Y-4.586
X8.303Y-4.9068
X8.3514Y-4.5087
X8.4063Y-4.961
X8.4646Y-4.4808
X8.5229Y-4.961
X8.5778Y-4.5087
X8.6262Y-4.9068
X8.6651Y-4.586
X8.6924Y-4.8108
X8.7065Y-4.6951
X5.4668Y-4.6951
X5.4809Y-4.8108
X5.5082Y-4.586
X5.5471Y-4.9068
X5.5955Y-4.5087
X5.6504Y-4.961
X5.7087Y-4.4808
X5.767Y-4.961
X5.8219Y-4.5087
X5.8703Y-4.9068
X5.9092Y-4.586
X5.9365Y-4.8108
X5.9506Y-4.6951
T6
X5.0709Y-5.7661
X5.0709Y-5.8661
X5.0709Y-5.9661
X5.1709Y-5.7661
X5.1709Y-5.8661
X5.1709Y-5.9661
X3.6024Y-5.748
X3.6024Y-5.848
X7.5512Y-5.7661
X7.5512Y-5.8661
X7.5512Y-5.9661
X5.0709Y-3.652
X5.0709Y-3.752
X5.0709Y-3.852
T7
X3.4646Y-3.2677
X3.4646Y-6.1811
X9.5276Y-3.2677
X9.5276Y-6.1811
T0
M30
