G04 #@! TF.GenerationSoftware,KiCad,Pcbnew,(5.0.2)-1*
G04 #@! TF.CreationDate,2020-02-13T22:52:32+01:00*
G04 #@! TF.ProjectId,Nixie_Clock,4e697869-655f-4436-9c6f-636b2e6b6963,rev?*
G04 #@! TF.SameCoordinates,Original*
G04 #@! TF.FileFunction,Legend,Bot*
G04 #@! TF.FilePolarity,Positive*
%FSLAX46Y46*%
G04 Gerber Fmt 4.6, Leading zero omitted, Abs format (unit mm)*
G04 Created by KiCad (PCBNEW (5.0.2)-1) date 13.02.2020 22:52:32*
%MOMM*%
%LPD*%
G01*
G04 APERTURE LIST*
%ADD10C,0.300000*%
%ADD11C,0.120000*%
%ADD12C,0.254000*%
%ADD13C,0.127000*%
%ADD14C,0.160000*%
%ADD15C,0.150000*%
%ADD16C,0.101600*%
%ADD17C,0.015000*%
G04 APERTURE END LIST*
D10*
X127035714Y-91280000D02*
X125607142Y-91280000D01*
X126750000Y-93357142D02*
X126535714Y-93428571D01*
X126178571Y-93428571D01*
X126035714Y-93357142D01*
X125964285Y-93285714D01*
X125892857Y-93142857D01*
X125892857Y-93000000D01*
X125964285Y-92857142D01*
X126035714Y-92785714D01*
X126178571Y-92714285D01*
X126464285Y-92642857D01*
X126607142Y-92571428D01*
X126678571Y-92500000D01*
X126750000Y-92357142D01*
X126750000Y-92214285D01*
X126678571Y-92071428D01*
X126607142Y-92000000D01*
X126464285Y-91928571D01*
X126107142Y-91928571D01*
X125892857Y-92000000D01*
X125607142Y-91280000D02*
X124035714Y-91280000D01*
X125250000Y-93428571D02*
X125250000Y-91928571D01*
X125250000Y-92642857D02*
X124392857Y-92642857D01*
X124392857Y-93428571D02*
X124392857Y-91928571D01*
X124035714Y-91280000D02*
X122535714Y-91280000D01*
X123678571Y-93428571D02*
X123678571Y-91928571D01*
X123321428Y-91928571D01*
X123107142Y-92000000D01*
X122964285Y-92142857D01*
X122892857Y-92285714D01*
X122821428Y-92571428D01*
X122821428Y-92785714D01*
X122892857Y-93071428D01*
X122964285Y-93214285D01*
X123107142Y-93357142D01*
X123321428Y-93428571D01*
X123678571Y-93428571D01*
X122535714Y-91280000D02*
X120964285Y-91280000D01*
X122178571Y-93428571D02*
X122178571Y-91928571D01*
X121321428Y-93428571D01*
X121321428Y-91928571D01*
X125928571Y-95407142D02*
X124785714Y-95407142D01*
X125357142Y-95978571D02*
X125357142Y-94835714D01*
X123357142Y-94478571D02*
X124071428Y-94478571D01*
X124142857Y-95192857D01*
X124071428Y-95121428D01*
X123928571Y-95050000D01*
X123571428Y-95050000D01*
X123428571Y-95121428D01*
X123357142Y-95192857D01*
X123285714Y-95335714D01*
X123285714Y-95692857D01*
X123357142Y-95835714D01*
X123428571Y-95907142D01*
X123571428Y-95978571D01*
X123928571Y-95978571D01*
X124071428Y-95907142D01*
X124142857Y-95835714D01*
X122857142Y-94478571D02*
X122357142Y-95978571D01*
X121857142Y-94478571D01*
X125142857Y-97100000D02*
X125285714Y-97028571D01*
X125500000Y-97028571D01*
X125714285Y-97100000D01*
X125857142Y-97242857D01*
X125928571Y-97385714D01*
X126000000Y-97671428D01*
X126000000Y-97885714D01*
X125928571Y-98171428D01*
X125857142Y-98314285D01*
X125714285Y-98457142D01*
X125500000Y-98528571D01*
X125357142Y-98528571D01*
X125142857Y-98457142D01*
X125071428Y-98385714D01*
X125071428Y-97885714D01*
X125357142Y-97885714D01*
X124428571Y-98528571D02*
X124428571Y-97028571D01*
X123571428Y-98528571D01*
X123571428Y-97028571D01*
X122857142Y-98528571D02*
X122857142Y-97028571D01*
X122500000Y-97028571D01*
X122285714Y-97100000D01*
X122142857Y-97242857D01*
X122071428Y-97385714D01*
X122000000Y-97671428D01*
X122000000Y-97885714D01*
X122071428Y-98171428D01*
X122142857Y-98314285D01*
X122285714Y-98457142D01*
X122500000Y-98528571D01*
X122857142Y-98528571D01*
X197550000Y-147128571D02*
X198050000Y-146414285D01*
X198407142Y-147128571D02*
X198407142Y-145628571D01*
X197835714Y-145628571D01*
X197692857Y-145700000D01*
X197621428Y-145771428D01*
X197550000Y-145914285D01*
X197550000Y-146128571D01*
X197621428Y-146271428D01*
X197692857Y-146342857D01*
X197835714Y-146414285D01*
X198407142Y-146414285D01*
X197050000Y-145628571D02*
X196050000Y-147128571D01*
X196050000Y-145628571D02*
X197050000Y-147128571D01*
X198442857Y-148178571D02*
X197585714Y-148178571D01*
X198014285Y-149678571D02*
X198014285Y-148178571D01*
X197228571Y-148178571D02*
X196228571Y-149678571D01*
X196228571Y-148178571D02*
X197228571Y-149678571D01*
X200371428Y-150080000D02*
X198871428Y-150080000D01*
X199157142Y-152228571D02*
X199657142Y-151514285D01*
X200014285Y-152228571D02*
X200014285Y-150728571D01*
X199442857Y-150728571D01*
X199300000Y-150800000D01*
X199228571Y-150871428D01*
X199157142Y-151014285D01*
X199157142Y-151228571D01*
X199228571Y-151371428D01*
X199300000Y-151442857D01*
X199442857Y-151514285D01*
X200014285Y-151514285D01*
X198871428Y-150080000D02*
X197585714Y-150080000D01*
X197942857Y-152157142D02*
X198085714Y-152228571D01*
X198371428Y-152228571D01*
X198514285Y-152157142D01*
X198585714Y-152014285D01*
X198585714Y-151442857D01*
X198514285Y-151300000D01*
X198371428Y-151228571D01*
X198085714Y-151228571D01*
X197942857Y-151300000D01*
X197871428Y-151442857D01*
X197871428Y-151585714D01*
X198585714Y-151728571D01*
X197585714Y-150080000D02*
X196371428Y-150080000D01*
X197300000Y-152157142D02*
X197157142Y-152228571D01*
X196871428Y-152228571D01*
X196728571Y-152157142D01*
X196657142Y-152014285D01*
X196657142Y-151942857D01*
X196728571Y-151800000D01*
X196871428Y-151728571D01*
X197085714Y-151728571D01*
X197228571Y-151657142D01*
X197300000Y-151514285D01*
X197300000Y-151442857D01*
X197228571Y-151300000D01*
X197085714Y-151228571D01*
X196871428Y-151228571D01*
X196728571Y-151300000D01*
X196371428Y-150080000D02*
X195085714Y-150080000D01*
X195442857Y-152157142D02*
X195585714Y-152228571D01*
X195871428Y-152228571D01*
X196014285Y-152157142D01*
X196085714Y-152014285D01*
X196085714Y-151442857D01*
X196014285Y-151300000D01*
X195871428Y-151228571D01*
X195585714Y-151228571D01*
X195442857Y-151300000D01*
X195371428Y-151442857D01*
X195371428Y-151585714D01*
X196085714Y-151728571D01*
X195085714Y-150080000D02*
X194228571Y-150080000D01*
X194942857Y-151228571D02*
X194371428Y-151228571D01*
X194728571Y-150728571D02*
X194728571Y-152014285D01*
X194657142Y-152157142D01*
X194514285Y-152228571D01*
X194371428Y-152228571D01*
X126571428Y-144980000D02*
X125071428Y-144980000D01*
X125357142Y-147128571D02*
X125857142Y-146414285D01*
X126214285Y-147128571D02*
X126214285Y-145628571D01*
X125642857Y-145628571D01*
X125500000Y-145700000D01*
X125428571Y-145771428D01*
X125357142Y-145914285D01*
X125357142Y-146128571D01*
X125428571Y-146271428D01*
X125500000Y-146342857D01*
X125642857Y-146414285D01*
X126214285Y-146414285D01*
X125071428Y-144980000D02*
X123785714Y-144980000D01*
X124142857Y-147057142D02*
X124285714Y-147128571D01*
X124571428Y-147128571D01*
X124714285Y-147057142D01*
X124785714Y-146914285D01*
X124785714Y-146342857D01*
X124714285Y-146200000D01*
X124571428Y-146128571D01*
X124285714Y-146128571D01*
X124142857Y-146200000D01*
X124071428Y-146342857D01*
X124071428Y-146485714D01*
X124785714Y-146628571D01*
X123785714Y-144980000D02*
X122571428Y-144980000D01*
X123500000Y-147057142D02*
X123357142Y-147128571D01*
X123071428Y-147128571D01*
X122928571Y-147057142D01*
X122857142Y-146914285D01*
X122857142Y-146842857D01*
X122928571Y-146700000D01*
X123071428Y-146628571D01*
X123285714Y-146628571D01*
X123428571Y-146557142D01*
X123500000Y-146414285D01*
X123500000Y-146342857D01*
X123428571Y-146200000D01*
X123285714Y-146128571D01*
X123071428Y-146128571D01*
X122928571Y-146200000D01*
X122571428Y-144980000D02*
X121285714Y-144980000D01*
X121642857Y-147057142D02*
X121785714Y-147128571D01*
X122071428Y-147128571D01*
X122214285Y-147057142D01*
X122285714Y-146914285D01*
X122285714Y-146342857D01*
X122214285Y-146200000D01*
X122071428Y-146128571D01*
X121785714Y-146128571D01*
X121642857Y-146200000D01*
X121571428Y-146342857D01*
X121571428Y-146485714D01*
X122285714Y-146628571D01*
X121285714Y-144980000D02*
X120428571Y-144980000D01*
X121142857Y-146128571D02*
X120571428Y-146128571D01*
X120928571Y-145628571D02*
X120928571Y-146914285D01*
X120857142Y-147057142D01*
X120714285Y-147128571D01*
X120571428Y-147128571D01*
X125428571Y-149607142D02*
X125214285Y-149678571D01*
X124857142Y-149678571D01*
X124714285Y-149607142D01*
X124642857Y-149535714D01*
X124571428Y-149392857D01*
X124571428Y-149250000D01*
X124642857Y-149107142D01*
X124714285Y-149035714D01*
X124857142Y-148964285D01*
X125142857Y-148892857D01*
X125285714Y-148821428D01*
X125357142Y-148750000D01*
X125428571Y-148607142D01*
X125428571Y-148464285D01*
X125357142Y-148321428D01*
X125285714Y-148250000D01*
X125142857Y-148178571D01*
X124785714Y-148178571D01*
X124571428Y-148250000D01*
X123071428Y-149535714D02*
X123142857Y-149607142D01*
X123357142Y-149678571D01*
X123500000Y-149678571D01*
X123714285Y-149607142D01*
X123857142Y-149464285D01*
X123928571Y-149321428D01*
X124000000Y-149035714D01*
X124000000Y-148821428D01*
X123928571Y-148535714D01*
X123857142Y-148392857D01*
X123714285Y-148250000D01*
X123500000Y-148178571D01*
X123357142Y-148178571D01*
X123142857Y-148250000D01*
X123071428Y-148321428D01*
X122428571Y-149678571D02*
X122428571Y-148178571D01*
X121571428Y-149678571D02*
X122214285Y-148821428D01*
X121571428Y-148178571D02*
X122428571Y-149035714D01*
X125857142Y-152228571D02*
X125857142Y-150728571D01*
X125357142Y-151800000D01*
X124857142Y-150728571D01*
X124857142Y-152228571D01*
X124142857Y-152228571D02*
X124142857Y-150728571D01*
X123500000Y-152157142D02*
X123285714Y-152228571D01*
X122928571Y-152228571D01*
X122785714Y-152157142D01*
X122714285Y-152085714D01*
X122642857Y-151942857D01*
X122642857Y-151800000D01*
X122714285Y-151657142D01*
X122785714Y-151585714D01*
X122928571Y-151514285D01*
X123214285Y-151442857D01*
X123357142Y-151371428D01*
X123428571Y-151300000D01*
X123500000Y-151157142D01*
X123500000Y-151014285D01*
X123428571Y-150871428D01*
X123357142Y-150800000D01*
X123214285Y-150728571D01*
X122857142Y-150728571D01*
X122642857Y-150800000D01*
X121714285Y-150728571D02*
X121428571Y-150728571D01*
X121285714Y-150800000D01*
X121142857Y-150942857D01*
X121071428Y-151228571D01*
X121071428Y-151728571D01*
X121142857Y-152014285D01*
X121285714Y-152157142D01*
X121428571Y-152228571D01*
X121714285Y-152228571D01*
X121857142Y-152157142D01*
X122000000Y-152014285D01*
X122071428Y-151728571D01*
X122071428Y-151228571D01*
X122000000Y-150942857D01*
X121857142Y-150800000D01*
X121714285Y-150728571D01*
X137342857Y-145700000D02*
X137485714Y-145628571D01*
X137700000Y-145628571D01*
X137914285Y-145700000D01*
X138057142Y-145842857D01*
X138128571Y-145985714D01*
X138200000Y-146271428D01*
X138200000Y-146485714D01*
X138128571Y-146771428D01*
X138057142Y-146914285D01*
X137914285Y-147057142D01*
X137700000Y-147128571D01*
X137557142Y-147128571D01*
X137342857Y-147057142D01*
X137271428Y-146985714D01*
X137271428Y-146485714D01*
X137557142Y-146485714D01*
X136628571Y-147128571D02*
X136628571Y-145628571D01*
X135771428Y-147128571D01*
X135771428Y-145628571D01*
X135057142Y-147128571D02*
X135057142Y-145628571D01*
X134700000Y-145628571D01*
X134485714Y-145700000D01*
X134342857Y-145842857D01*
X134271428Y-145985714D01*
X134200000Y-146271428D01*
X134200000Y-146485714D01*
X134271428Y-146771428D01*
X134342857Y-146914285D01*
X134485714Y-147057142D01*
X134700000Y-147128571D01*
X135057142Y-147128571D01*
X138557142Y-149678571D02*
X138557142Y-148178571D01*
X138057142Y-149250000D01*
X137557142Y-148178571D01*
X137557142Y-149678571D01*
X136557142Y-148178571D02*
X136271428Y-148178571D01*
X136128571Y-148250000D01*
X135985714Y-148392857D01*
X135914285Y-148678571D01*
X135914285Y-149178571D01*
X135985714Y-149464285D01*
X136128571Y-149607142D01*
X136271428Y-149678571D01*
X136557142Y-149678571D01*
X136700000Y-149607142D01*
X136842857Y-149464285D01*
X136914285Y-149178571D01*
X136914285Y-148678571D01*
X136842857Y-148392857D01*
X136700000Y-148250000D01*
X136557142Y-148178571D01*
X135342857Y-149607142D02*
X135128571Y-149678571D01*
X134771428Y-149678571D01*
X134628571Y-149607142D01*
X134557142Y-149535714D01*
X134485714Y-149392857D01*
X134485714Y-149250000D01*
X134557142Y-149107142D01*
X134628571Y-149035714D01*
X134771428Y-148964285D01*
X135057142Y-148892857D01*
X135200000Y-148821428D01*
X135271428Y-148750000D01*
X135342857Y-148607142D01*
X135342857Y-148464285D01*
X135271428Y-148321428D01*
X135200000Y-148250000D01*
X135057142Y-148178571D01*
X134700000Y-148178571D01*
X134485714Y-148250000D01*
X133842857Y-149678571D02*
X133842857Y-148178571D01*
X138128571Y-151657142D02*
X136985714Y-151657142D01*
X137557142Y-152228571D02*
X137557142Y-151085714D01*
X135557142Y-150728571D02*
X136271428Y-150728571D01*
X136342857Y-151442857D01*
X136271428Y-151371428D01*
X136128571Y-151300000D01*
X135771428Y-151300000D01*
X135628571Y-151371428D01*
X135557142Y-151442857D01*
X135485714Y-151585714D01*
X135485714Y-151942857D01*
X135557142Y-152085714D01*
X135628571Y-152157142D01*
X135771428Y-152228571D01*
X136128571Y-152228571D01*
X136271428Y-152157142D01*
X136342857Y-152085714D01*
X135057142Y-150728571D02*
X134557142Y-152228571D01*
X134057142Y-150728571D01*
X97585714Y-146732142D02*
X97371428Y-146803571D01*
X97014285Y-146803571D01*
X96871428Y-146732142D01*
X96800000Y-146660714D01*
X96728571Y-146517857D01*
X96728571Y-146375000D01*
X96800000Y-146232142D01*
X96871428Y-146160714D01*
X97014285Y-146089285D01*
X97300000Y-146017857D01*
X97442857Y-145946428D01*
X97514285Y-145875000D01*
X97585714Y-145732142D01*
X97585714Y-145589285D01*
X97514285Y-145446428D01*
X97442857Y-145375000D01*
X97300000Y-145303571D01*
X96942857Y-145303571D01*
X96728571Y-145375000D01*
X95228571Y-146660714D02*
X95300000Y-146732142D01*
X95514285Y-146803571D01*
X95657142Y-146803571D01*
X95871428Y-146732142D01*
X96014285Y-146589285D01*
X96085714Y-146446428D01*
X96157142Y-146160714D01*
X96157142Y-145946428D01*
X96085714Y-145660714D01*
X96014285Y-145517857D01*
X95871428Y-145375000D01*
X95657142Y-145303571D01*
X95514285Y-145303571D01*
X95300000Y-145375000D01*
X95228571Y-145446428D01*
X93871428Y-146803571D02*
X94585714Y-146803571D01*
X94585714Y-145303571D01*
X97621428Y-149282142D02*
X97407142Y-149353571D01*
X97050000Y-149353571D01*
X96907142Y-149282142D01*
X96835714Y-149210714D01*
X96764285Y-149067857D01*
X96764285Y-148925000D01*
X96835714Y-148782142D01*
X96907142Y-148710714D01*
X97050000Y-148639285D01*
X97335714Y-148567857D01*
X97478571Y-148496428D01*
X97550000Y-148425000D01*
X97621428Y-148282142D01*
X97621428Y-148139285D01*
X97550000Y-147996428D01*
X97478571Y-147925000D01*
X97335714Y-147853571D01*
X96978571Y-147853571D01*
X96764285Y-147925000D01*
X96121428Y-149353571D02*
X96121428Y-147853571D01*
X95764285Y-147853571D01*
X95550000Y-147925000D01*
X95407142Y-148067857D01*
X95335714Y-148210714D01*
X95264285Y-148496428D01*
X95264285Y-148710714D01*
X95335714Y-148996428D01*
X95407142Y-149139285D01*
X95550000Y-149282142D01*
X95764285Y-149353571D01*
X96121428Y-149353571D01*
X94692857Y-148925000D02*
X93978571Y-148925000D01*
X94835714Y-149353571D02*
X94335714Y-147853571D01*
X93835714Y-149353571D01*
D11*
G04 #@! TO.C,C1*
X195203733Y-90390000D02*
X195546267Y-90390000D01*
X195203733Y-91410000D02*
X195546267Y-91410000D01*
G04 #@! TO.C,C2*
X151402064Y-91760000D02*
X150197936Y-91760000D01*
X151402064Y-89040000D02*
X150197936Y-89040000D01*
G04 #@! TO.C,C3*
X151402064Y-93040000D02*
X150197936Y-93040000D01*
X151402064Y-95760000D02*
X150197936Y-95760000D01*
G04 #@! TO.C,C4*
X151402064Y-99760000D02*
X150197936Y-99760000D01*
X151402064Y-97040000D02*
X150197936Y-97040000D01*
G04 #@! TO.C,C5*
X151402064Y-101040000D02*
X150197936Y-101040000D01*
X151402064Y-103760000D02*
X150197936Y-103760000D01*
G04 #@! TO.C,C6*
X142097936Y-97490000D02*
X143302064Y-97490000D01*
X142097936Y-99310000D02*
X143302064Y-99310000D01*
G04 #@! TO.C,C7*
X142084673Y-103400825D02*
X143288801Y-103400825D01*
X142084673Y-101580825D02*
X143288801Y-101580825D01*
G04 #@! TO.C,C8*
X186171267Y-90390000D02*
X185828733Y-90390000D01*
X186171267Y-91410000D02*
X185828733Y-91410000D01*
G04 #@! TO.C,C9*
X195203733Y-87410000D02*
X195546267Y-87410000D01*
X195203733Y-86390000D02*
X195546267Y-86390000D01*
G04 #@! TO.C,C10*
X195203733Y-82390000D02*
X195546267Y-82390000D01*
X195203733Y-83410000D02*
X195546267Y-83410000D01*
G04 #@! TO.C,C11*
X184810000Y-86928733D02*
X184810000Y-87271267D01*
X183790000Y-86928733D02*
X183790000Y-87271267D01*
G04 #@! TO.C,C12*
X165071267Y-153090000D02*
X164728733Y-153090000D01*
X165071267Y-154110000D02*
X164728733Y-154110000D01*
G04 #@! TO.C,C13*
X165402064Y-155840000D02*
X164197936Y-155840000D01*
X165402064Y-158560000D02*
X164197936Y-158560000D01*
G04 #@! TO.C,C14*
X159190000Y-155136252D02*
X159190000Y-154613748D01*
X160610000Y-155136252D02*
X160610000Y-154613748D01*
G04 #@! TO.C,C15*
X143190000Y-154513748D02*
X143190000Y-155036252D01*
X144610000Y-154513748D02*
X144610000Y-155036252D01*
G04 #@! TO.C,D1*
X144860000Y-92880000D02*
X142140000Y-92880000D01*
X142140000Y-92880000D02*
X142140000Y-87900000D01*
X144860000Y-92880000D02*
X144860000Y-87900000D01*
G04 #@! TO.C,D2*
X116518856Y-147370153D02*
X116518856Y-144910153D01*
X116518856Y-144910153D02*
X117988856Y-144910153D01*
X117988856Y-144910153D02*
X117988856Y-147370153D01*
G04 #@! TO.C,J1*
X127470000Y-99170000D02*
X128800000Y-99170000D01*
X127470000Y-97840000D02*
X127470000Y-99170000D01*
X127470000Y-96570000D02*
X130130000Y-96570000D01*
X130130000Y-96570000D02*
X130130000Y-91430000D01*
X127470000Y-96570000D02*
X127470000Y-91430000D01*
X127470000Y-91430000D02*
X130130000Y-91430000D01*
G04 #@! TO.C,J2*
X190470000Y-145130000D02*
X193130000Y-145130000D01*
X190470000Y-150270000D02*
X190470000Y-145130000D01*
X193130000Y-150270000D02*
X193130000Y-145130000D01*
X190470000Y-150270000D02*
X193130000Y-150270000D01*
X190470000Y-151540000D02*
X190470000Y-152870000D01*
X190470000Y-152870000D02*
X191800000Y-152870000D01*
G04 #@! TO.C,J3*
X127470000Y-145130000D02*
X132670000Y-145130000D01*
X127470000Y-150270000D02*
X127470000Y-145130000D01*
X132670000Y-152870000D02*
X132670000Y-145130000D01*
X127470000Y-150270000D02*
X130070000Y-150270000D01*
X130070000Y-150270000D02*
X130070000Y-152870000D01*
X130070000Y-152870000D02*
X132670000Y-152870000D01*
X127470000Y-151540000D02*
X127470000Y-152870000D01*
X127470000Y-152870000D02*
X128800000Y-152870000D01*
G04 #@! TO.C,J5*
X92830000Y-149870000D02*
X90170000Y-149870000D01*
X92830000Y-147270000D02*
X92830000Y-149870000D01*
X90170000Y-147270000D02*
X90170000Y-149870000D01*
X92830000Y-147270000D02*
X90170000Y-147270000D01*
X92830000Y-146000000D02*
X92830000Y-144670000D01*
X92830000Y-144670000D02*
X91500000Y-144670000D01*
D12*
G04 #@! TO.C,Nh1*
X152620000Y-120000000D02*
G75*
G02X137380000Y-119842520I-7620000J78740D01*
G01*
X153872220Y-120000000D02*
G75*
G03X153872220Y-120000000I-8872220J0D01*
G01*
G04 #@! TO.C,Nh10*
X123872220Y-120000000D02*
G75*
G03X123872220Y-120000000I-8872220J0D01*
G01*
X122620000Y-120000000D02*
G75*
G02X107380000Y-119842520I-7620000J78740D01*
G01*
G04 #@! TO.C,Nm1*
X222620000Y-120000000D02*
G75*
G02X207380000Y-119842520I-7620000J78740D01*
G01*
X223872220Y-120000000D02*
G75*
G03X223872220Y-120000000I-8872220J0D01*
G01*
G04 #@! TO.C,Nm10*
X193872220Y-120000000D02*
G75*
G03X193872220Y-120000000I-8872220J0D01*
G01*
X192620000Y-120000000D02*
G75*
G02X177380000Y-119842520I-7620000J78740D01*
G01*
D11*
G04 #@! TO.C,Q1*
X184950000Y-97430000D02*
X184950000Y-95930000D01*
X184950000Y-95930000D02*
X185220000Y-95930000D01*
X185220000Y-95930000D02*
X185220000Y-93100000D01*
X191850000Y-97430000D02*
X191850000Y-95930000D01*
X191850000Y-95930000D02*
X191580000Y-95930000D01*
X191580000Y-95930000D02*
X191580000Y-94830000D01*
G04 #@! TO.C,R1*
X195203733Y-92390000D02*
X195546267Y-92390000D01*
X195203733Y-93410000D02*
X195546267Y-93410000D01*
G04 #@! TO.C,R2*
X138110000Y-91236252D02*
X138110000Y-90713748D01*
X136690000Y-91236252D02*
X136690000Y-90713748D01*
G04 #@! TO.C,R3*
X195203733Y-88390000D02*
X195546267Y-88390000D01*
X195203733Y-89410000D02*
X195546267Y-89410000D01*
G04 #@! TO.C,R4*
X193490000Y-97285436D02*
X193490000Y-98489564D01*
X195310000Y-97285436D02*
X195310000Y-98489564D01*
G04 #@! TO.C,R5*
X189971267Y-90390000D02*
X189628733Y-90390000D01*
X189971267Y-91410000D02*
X189628733Y-91410000D01*
G04 #@! TO.C,R6*
X195203733Y-85410000D02*
X195546267Y-85410000D01*
X195203733Y-84390000D02*
X195546267Y-84390000D01*
G04 #@! TO.C,R7*
X137910000Y-86871267D02*
X137910000Y-86528733D01*
X136890000Y-86871267D02*
X136890000Y-86528733D01*
G04 #@! TO.C,R8*
X151790000Y-86371267D02*
X151790000Y-86028733D01*
X152810000Y-86371267D02*
X152810000Y-86028733D01*
G04 #@! TO.C,R9*
X116743856Y-149998886D02*
X116743856Y-150341420D01*
X117763856Y-149998886D02*
X117763856Y-150341420D01*
G04 #@! TO.C,R10*
X186710000Y-149953733D02*
X186710000Y-150296267D01*
X185690000Y-149953733D02*
X185690000Y-150296267D01*
G04 #@! TO.C,U1*
X189200000Y-85490000D02*
X192075000Y-85490000D01*
X189200000Y-85490000D02*
X187700000Y-85490000D01*
X189200000Y-88710000D02*
X190700000Y-88710000D01*
X189200000Y-88710000D02*
X187700000Y-88710000D01*
D13*
G04 #@! TO.C,U2*
X175700000Y-85300000D02*
X160700000Y-85300000D01*
X160700000Y-85300000D02*
X160700000Y-102500000D01*
X160700000Y-102500000D02*
X175700000Y-102500000D01*
X175700000Y-102500000D02*
X175700000Y-85300000D01*
D14*
X174616300Y-86880000D02*
G75*
G03X174616300Y-86880000I-746300J0D01*
G01*
D11*
G04 #@! TO.C,U3*
X182830000Y-146190000D02*
G75*
G03X182830000Y-148190000I0J-1000000D01*
G01*
X182830000Y-148190000D02*
X182830000Y-149840000D01*
X182830000Y-149840000D02*
X147150000Y-149840000D01*
X147150000Y-149840000D02*
X147150000Y-144540000D01*
X147150000Y-144540000D02*
X182830000Y-144540000D01*
X182830000Y-144540000D02*
X182830000Y-146190000D01*
G04 #@! TO.C,Um1*
X225230000Y-132540000D02*
X225230000Y-134190000D01*
X204790000Y-132540000D02*
X225230000Y-132540000D01*
X204790000Y-137840000D02*
X204790000Y-132540000D01*
X225230000Y-137840000D02*
X204790000Y-137840000D01*
X225230000Y-136190000D02*
X225230000Y-137840000D01*
X225230000Y-134190000D02*
G75*
G03X225230000Y-136190000I0J-1000000D01*
G01*
G04 #@! TO.C,Um2*
X195230000Y-134190000D02*
G75*
G03X195230000Y-136190000I0J-1000000D01*
G01*
X195230000Y-136190000D02*
X195230000Y-137840000D01*
X195230000Y-137840000D02*
X174790000Y-137840000D01*
X174790000Y-137840000D02*
X174790000Y-132540000D01*
X174790000Y-132540000D02*
X195230000Y-132540000D01*
X195230000Y-132540000D02*
X195230000Y-134190000D01*
G04 #@! TO.C,Um3*
X155230000Y-132540000D02*
X155230000Y-134190000D01*
X134790000Y-132540000D02*
X155230000Y-132540000D01*
X134790000Y-137840000D02*
X134790000Y-132540000D01*
X155230000Y-137840000D02*
X134790000Y-137840000D01*
X155230000Y-136190000D02*
X155230000Y-137840000D01*
X155230000Y-134190000D02*
G75*
G03X155230000Y-136190000I0J-1000000D01*
G01*
G04 #@! TO.C,Um4*
X125230000Y-134190000D02*
G75*
G03X125230000Y-136190000I0J-1000000D01*
G01*
X125230000Y-136190000D02*
X125230000Y-137840000D01*
X125230000Y-137840000D02*
X104790000Y-137840000D01*
X104790000Y-137840000D02*
X104790000Y-132540000D01*
X104790000Y-132540000D02*
X125230000Y-132540000D01*
X125230000Y-132540000D02*
X125230000Y-134190000D01*
G04 #@! TO.C,Y1*
X154960000Y-153275000D02*
X148560000Y-153275000D01*
X154960000Y-158325000D02*
X148560000Y-158325000D01*
X154960000Y-158325000D02*
G75*
G03X154960000Y-153275000I0J2525000D01*
G01*
X148560000Y-158325000D02*
G75*
G02X148560000Y-153275000I0J2525000D01*
G01*
G04 #@! TO.C,C1*
D15*
X198657142Y-90633333D02*
X198704761Y-90585714D01*
X198752380Y-90442857D01*
X198752380Y-90347619D01*
X198704761Y-90204761D01*
X198609523Y-90109523D01*
X198514285Y-90061904D01*
X198323809Y-90014285D01*
X198180952Y-90014285D01*
X197990476Y-90061904D01*
X197895238Y-90109523D01*
X197800000Y-90204761D01*
X197752380Y-90347619D01*
X197752380Y-90442857D01*
X197800000Y-90585714D01*
X197847619Y-90633333D01*
X198752380Y-91585714D02*
X198752380Y-91014285D01*
X198752380Y-91300000D02*
X197752380Y-91300000D01*
X197895238Y-91204761D01*
X197990476Y-91109523D01*
X198038095Y-91014285D01*
G04 #@! TO.C,C2*
X147957142Y-90233333D02*
X148004761Y-90185714D01*
X148052380Y-90042857D01*
X148052380Y-89947619D01*
X148004761Y-89804761D01*
X147909523Y-89709523D01*
X147814285Y-89661904D01*
X147623809Y-89614285D01*
X147480952Y-89614285D01*
X147290476Y-89661904D01*
X147195238Y-89709523D01*
X147100000Y-89804761D01*
X147052380Y-89947619D01*
X147052380Y-90042857D01*
X147100000Y-90185714D01*
X147147619Y-90233333D01*
X147147619Y-90614285D02*
X147100000Y-90661904D01*
X147052380Y-90757142D01*
X147052380Y-90995238D01*
X147100000Y-91090476D01*
X147147619Y-91138095D01*
X147242857Y-91185714D01*
X147338095Y-91185714D01*
X147480952Y-91138095D01*
X148052380Y-90566666D01*
X148052380Y-91185714D01*
G04 #@! TO.C,C3*
X147957142Y-94233333D02*
X148004761Y-94185714D01*
X148052380Y-94042857D01*
X148052380Y-93947619D01*
X148004761Y-93804761D01*
X147909523Y-93709523D01*
X147814285Y-93661904D01*
X147623809Y-93614285D01*
X147480952Y-93614285D01*
X147290476Y-93661904D01*
X147195238Y-93709523D01*
X147100000Y-93804761D01*
X147052380Y-93947619D01*
X147052380Y-94042857D01*
X147100000Y-94185714D01*
X147147619Y-94233333D01*
X147052380Y-94566666D02*
X147052380Y-95185714D01*
X147433333Y-94852380D01*
X147433333Y-94995238D01*
X147480952Y-95090476D01*
X147528571Y-95138095D01*
X147623809Y-95185714D01*
X147861904Y-95185714D01*
X147957142Y-95138095D01*
X148004761Y-95090476D01*
X148052380Y-94995238D01*
X148052380Y-94709523D01*
X148004761Y-94614285D01*
X147957142Y-94566666D01*
G04 #@! TO.C,C4*
X147957142Y-98233333D02*
X148004761Y-98185714D01*
X148052380Y-98042857D01*
X148052380Y-97947619D01*
X148004761Y-97804761D01*
X147909523Y-97709523D01*
X147814285Y-97661904D01*
X147623809Y-97614285D01*
X147480952Y-97614285D01*
X147290476Y-97661904D01*
X147195238Y-97709523D01*
X147100000Y-97804761D01*
X147052380Y-97947619D01*
X147052380Y-98042857D01*
X147100000Y-98185714D01*
X147147619Y-98233333D01*
X147385714Y-99090476D02*
X148052380Y-99090476D01*
X147004761Y-98852380D02*
X147719047Y-98614285D01*
X147719047Y-99233333D01*
G04 #@! TO.C,C5*
X147957142Y-102233333D02*
X148004761Y-102185714D01*
X148052380Y-102042857D01*
X148052380Y-101947619D01*
X148004761Y-101804761D01*
X147909523Y-101709523D01*
X147814285Y-101661904D01*
X147623809Y-101614285D01*
X147480952Y-101614285D01*
X147290476Y-101661904D01*
X147195238Y-101709523D01*
X147100000Y-101804761D01*
X147052380Y-101947619D01*
X147052380Y-102042857D01*
X147100000Y-102185714D01*
X147147619Y-102233333D01*
X147052380Y-103138095D02*
X147052380Y-102661904D01*
X147528571Y-102614285D01*
X147480952Y-102661904D01*
X147433333Y-102757142D01*
X147433333Y-102995238D01*
X147480952Y-103090476D01*
X147528571Y-103138095D01*
X147623809Y-103185714D01*
X147861904Y-103185714D01*
X147957142Y-103138095D01*
X148004761Y-103090476D01*
X148052380Y-102995238D01*
X148052380Y-102757142D01*
X148004761Y-102661904D01*
X147957142Y-102614285D01*
G04 #@! TO.C,C6*
X142866666Y-100577142D02*
X142914285Y-100624761D01*
X143057142Y-100672380D01*
X143152380Y-100672380D01*
X143295238Y-100624761D01*
X143390476Y-100529523D01*
X143438095Y-100434285D01*
X143485714Y-100243809D01*
X143485714Y-100100952D01*
X143438095Y-99910476D01*
X143390476Y-99815238D01*
X143295238Y-99720000D01*
X143152380Y-99672380D01*
X143057142Y-99672380D01*
X142914285Y-99720000D01*
X142866666Y-99767619D01*
X142009523Y-99672380D02*
X142200000Y-99672380D01*
X142295238Y-99720000D01*
X142342857Y-99767619D01*
X142438095Y-99910476D01*
X142485714Y-100100952D01*
X142485714Y-100481904D01*
X142438095Y-100577142D01*
X142390476Y-100624761D01*
X142295238Y-100672380D01*
X142104761Y-100672380D01*
X142009523Y-100624761D01*
X141961904Y-100577142D01*
X141914285Y-100481904D01*
X141914285Y-100243809D01*
X141961904Y-100148571D01*
X142009523Y-100100952D01*
X142104761Y-100053333D01*
X142295238Y-100053333D01*
X142390476Y-100100952D01*
X142438095Y-100148571D01*
X142485714Y-100243809D01*
G04 #@! TO.C,C7*
X142853403Y-104667967D02*
X142901022Y-104715586D01*
X143043879Y-104763205D01*
X143139117Y-104763205D01*
X143281975Y-104715586D01*
X143377213Y-104620348D01*
X143424832Y-104525110D01*
X143472451Y-104334634D01*
X143472451Y-104191777D01*
X143424832Y-104001301D01*
X143377213Y-103906063D01*
X143281975Y-103810825D01*
X143139117Y-103763205D01*
X143043879Y-103763205D01*
X142901022Y-103810825D01*
X142853403Y-103858444D01*
X142520070Y-103763205D02*
X141853403Y-103763205D01*
X142281975Y-104763205D01*
G04 #@! TO.C,C8*
X183266666Y-91257142D02*
X183314285Y-91304761D01*
X183457142Y-91352380D01*
X183552380Y-91352380D01*
X183695238Y-91304761D01*
X183790476Y-91209523D01*
X183838095Y-91114285D01*
X183885714Y-90923809D01*
X183885714Y-90780952D01*
X183838095Y-90590476D01*
X183790476Y-90495238D01*
X183695238Y-90400000D01*
X183552380Y-90352380D01*
X183457142Y-90352380D01*
X183314285Y-90400000D01*
X183266666Y-90447619D01*
X182695238Y-90780952D02*
X182790476Y-90733333D01*
X182838095Y-90685714D01*
X182885714Y-90590476D01*
X182885714Y-90542857D01*
X182838095Y-90447619D01*
X182790476Y-90400000D01*
X182695238Y-90352380D01*
X182504761Y-90352380D01*
X182409523Y-90400000D01*
X182361904Y-90447619D01*
X182314285Y-90542857D01*
X182314285Y-90590476D01*
X182361904Y-90685714D01*
X182409523Y-90733333D01*
X182504761Y-90780952D01*
X182695238Y-90780952D01*
X182790476Y-90828571D01*
X182838095Y-90876190D01*
X182885714Y-90971428D01*
X182885714Y-91161904D01*
X182838095Y-91257142D01*
X182790476Y-91304761D01*
X182695238Y-91352380D01*
X182504761Y-91352380D01*
X182409523Y-91304761D01*
X182361904Y-91257142D01*
X182314285Y-91161904D01*
X182314285Y-90971428D01*
X182361904Y-90876190D01*
X182409523Y-90828571D01*
X182504761Y-90780952D01*
G04 #@! TO.C,C9*
X198657142Y-86733333D02*
X198704761Y-86685714D01*
X198752380Y-86542857D01*
X198752380Y-86447619D01*
X198704761Y-86304761D01*
X198609523Y-86209523D01*
X198514285Y-86161904D01*
X198323809Y-86114285D01*
X198180952Y-86114285D01*
X197990476Y-86161904D01*
X197895238Y-86209523D01*
X197800000Y-86304761D01*
X197752380Y-86447619D01*
X197752380Y-86542857D01*
X197800000Y-86685714D01*
X197847619Y-86733333D01*
X198752380Y-87209523D02*
X198752380Y-87400000D01*
X198704761Y-87495238D01*
X198657142Y-87542857D01*
X198514285Y-87638095D01*
X198323809Y-87685714D01*
X197942857Y-87685714D01*
X197847619Y-87638095D01*
X197800000Y-87590476D01*
X197752380Y-87495238D01*
X197752380Y-87304761D01*
X197800000Y-87209523D01*
X197847619Y-87161904D01*
X197942857Y-87114285D01*
X198180952Y-87114285D01*
X198276190Y-87161904D01*
X198323809Y-87209523D01*
X198371428Y-87304761D01*
X198371428Y-87495238D01*
X198323809Y-87590476D01*
X198276190Y-87638095D01*
X198180952Y-87685714D01*
G04 #@! TO.C,C10*
X198657142Y-82257142D02*
X198704761Y-82209523D01*
X198752380Y-82066666D01*
X198752380Y-81971428D01*
X198704761Y-81828571D01*
X198609523Y-81733333D01*
X198514285Y-81685714D01*
X198323809Y-81638095D01*
X198180952Y-81638095D01*
X197990476Y-81685714D01*
X197895238Y-81733333D01*
X197800000Y-81828571D01*
X197752380Y-81971428D01*
X197752380Y-82066666D01*
X197800000Y-82209523D01*
X197847619Y-82257142D01*
X198752380Y-83209523D02*
X198752380Y-82638095D01*
X198752380Y-82923809D02*
X197752380Y-82923809D01*
X197895238Y-82828571D01*
X197990476Y-82733333D01*
X198038095Y-82638095D01*
X197752380Y-83828571D02*
X197752380Y-83923809D01*
X197800000Y-84019047D01*
X197847619Y-84066666D01*
X197942857Y-84114285D01*
X198133333Y-84161904D01*
X198371428Y-84161904D01*
X198561904Y-84114285D01*
X198657142Y-84066666D01*
X198704761Y-84019047D01*
X198752380Y-83923809D01*
X198752380Y-83828571D01*
X198704761Y-83733333D01*
X198657142Y-83685714D01*
X198561904Y-83638095D01*
X198371428Y-83590476D01*
X198133333Y-83590476D01*
X197942857Y-83638095D01*
X197847619Y-83685714D01*
X197800000Y-83733333D01*
X197752380Y-83828571D01*
G04 #@! TO.C,C11*
X184942857Y-84657142D02*
X184990476Y-84704761D01*
X185133333Y-84752380D01*
X185228571Y-84752380D01*
X185371428Y-84704761D01*
X185466666Y-84609523D01*
X185514285Y-84514285D01*
X185561904Y-84323809D01*
X185561904Y-84180952D01*
X185514285Y-83990476D01*
X185466666Y-83895238D01*
X185371428Y-83800000D01*
X185228571Y-83752380D01*
X185133333Y-83752380D01*
X184990476Y-83800000D01*
X184942857Y-83847619D01*
X183990476Y-84752380D02*
X184561904Y-84752380D01*
X184276190Y-84752380D02*
X184276190Y-83752380D01*
X184371428Y-83895238D01*
X184466666Y-83990476D01*
X184561904Y-84038095D01*
X183038095Y-84752380D02*
X183609523Y-84752380D01*
X183323809Y-84752380D02*
X183323809Y-83752380D01*
X183419047Y-83895238D01*
X183514285Y-83990476D01*
X183609523Y-84038095D01*
G04 #@! TO.C,C12*
X168942857Y-154057142D02*
X168990476Y-154104761D01*
X169133333Y-154152380D01*
X169228571Y-154152380D01*
X169371428Y-154104761D01*
X169466666Y-154009523D01*
X169514285Y-153914285D01*
X169561904Y-153723809D01*
X169561904Y-153580952D01*
X169514285Y-153390476D01*
X169466666Y-153295238D01*
X169371428Y-153200000D01*
X169228571Y-153152380D01*
X169133333Y-153152380D01*
X168990476Y-153200000D01*
X168942857Y-153247619D01*
X167990476Y-154152380D02*
X168561904Y-154152380D01*
X168276190Y-154152380D02*
X168276190Y-153152380D01*
X168371428Y-153295238D01*
X168466666Y-153390476D01*
X168561904Y-153438095D01*
X167609523Y-153247619D02*
X167561904Y-153200000D01*
X167466666Y-153152380D01*
X167228571Y-153152380D01*
X167133333Y-153200000D01*
X167085714Y-153247619D01*
X167038095Y-153342857D01*
X167038095Y-153438095D01*
X167085714Y-153580952D01*
X167657142Y-154152380D01*
X167038095Y-154152380D01*
G04 #@! TO.C,C13*
X169442857Y-156857142D02*
X169490476Y-156904761D01*
X169633333Y-156952380D01*
X169728571Y-156952380D01*
X169871428Y-156904761D01*
X169966666Y-156809523D01*
X170014285Y-156714285D01*
X170061904Y-156523809D01*
X170061904Y-156380952D01*
X170014285Y-156190476D01*
X169966666Y-156095238D01*
X169871428Y-156000000D01*
X169728571Y-155952380D01*
X169633333Y-155952380D01*
X169490476Y-156000000D01*
X169442857Y-156047619D01*
X168490476Y-156952380D02*
X169061904Y-156952380D01*
X168776190Y-156952380D02*
X168776190Y-155952380D01*
X168871428Y-156095238D01*
X168966666Y-156190476D01*
X169061904Y-156238095D01*
X168157142Y-155952380D02*
X167538095Y-155952380D01*
X167871428Y-156333333D01*
X167728571Y-156333333D01*
X167633333Y-156380952D01*
X167585714Y-156428571D01*
X167538095Y-156523809D01*
X167538095Y-156761904D01*
X167585714Y-156857142D01*
X167633333Y-156904761D01*
X167728571Y-156952380D01*
X168014285Y-156952380D01*
X168109523Y-156904761D01*
X168157142Y-156857142D01*
G04 #@! TO.C,C14*
X160542857Y-157957142D02*
X160590476Y-158004761D01*
X160733333Y-158052380D01*
X160828571Y-158052380D01*
X160971428Y-158004761D01*
X161066666Y-157909523D01*
X161114285Y-157814285D01*
X161161904Y-157623809D01*
X161161904Y-157480952D01*
X161114285Y-157290476D01*
X161066666Y-157195238D01*
X160971428Y-157100000D01*
X160828571Y-157052380D01*
X160733333Y-157052380D01*
X160590476Y-157100000D01*
X160542857Y-157147619D01*
X159590476Y-158052380D02*
X160161904Y-158052380D01*
X159876190Y-158052380D02*
X159876190Y-157052380D01*
X159971428Y-157195238D01*
X160066666Y-157290476D01*
X160161904Y-157338095D01*
X158733333Y-157385714D02*
X158733333Y-158052380D01*
X158971428Y-157004761D02*
X159209523Y-157719047D01*
X158590476Y-157719047D01*
G04 #@! TO.C,C15*
X144442857Y-157857142D02*
X144490476Y-157904761D01*
X144633333Y-157952380D01*
X144728571Y-157952380D01*
X144871428Y-157904761D01*
X144966666Y-157809523D01*
X145014285Y-157714285D01*
X145061904Y-157523809D01*
X145061904Y-157380952D01*
X145014285Y-157190476D01*
X144966666Y-157095238D01*
X144871428Y-157000000D01*
X144728571Y-156952380D01*
X144633333Y-156952380D01*
X144490476Y-157000000D01*
X144442857Y-157047619D01*
X143490476Y-157952380D02*
X144061904Y-157952380D01*
X143776190Y-157952380D02*
X143776190Y-156952380D01*
X143871428Y-157095238D01*
X143966666Y-157190476D01*
X144061904Y-157238095D01*
X142585714Y-156952380D02*
X143061904Y-156952380D01*
X143109523Y-157428571D01*
X143061904Y-157380952D01*
X142966666Y-157333333D01*
X142728571Y-157333333D01*
X142633333Y-157380952D01*
X142585714Y-157428571D01*
X142538095Y-157523809D01*
X142538095Y-157761904D01*
X142585714Y-157857142D01*
X142633333Y-157904761D01*
X142728571Y-157952380D01*
X142966666Y-157952380D01*
X143061904Y-157904761D01*
X143109523Y-157857142D01*
G04 #@! TO.C,D1*
X145952380Y-89061904D02*
X144952380Y-89061904D01*
X144952380Y-89300000D01*
X145000000Y-89442857D01*
X145095238Y-89538095D01*
X145190476Y-89585714D01*
X145380952Y-89633333D01*
X145523809Y-89633333D01*
X145714285Y-89585714D01*
X145809523Y-89538095D01*
X145904761Y-89442857D01*
X145952380Y-89300000D01*
X145952380Y-89061904D01*
X145952380Y-90585714D02*
X145952380Y-90014285D01*
X145952380Y-90300000D02*
X144952380Y-90300000D01*
X145095238Y-90204761D01*
X145190476Y-90109523D01*
X145238095Y-90014285D01*
G04 #@! TO.C,D2*
X116276236Y-145832057D02*
X115276236Y-145832057D01*
X115276236Y-146070153D01*
X115323856Y-146213010D01*
X115419094Y-146308248D01*
X115514332Y-146355867D01*
X115704808Y-146403486D01*
X115847665Y-146403486D01*
X116038141Y-146355867D01*
X116133379Y-146308248D01*
X116228617Y-146213010D01*
X116276236Y-146070153D01*
X116276236Y-145832057D01*
X115371475Y-146784438D02*
X115323856Y-146832057D01*
X115276236Y-146927295D01*
X115276236Y-147165391D01*
X115323856Y-147260629D01*
X115371475Y-147308248D01*
X115466713Y-147355867D01*
X115561951Y-147355867D01*
X115704808Y-147308248D01*
X116276236Y-146736819D01*
X116276236Y-147355867D01*
G04 #@! TO.C,J1*
X129133333Y-99622380D02*
X129133333Y-100336666D01*
X129180952Y-100479523D01*
X129276190Y-100574761D01*
X129419047Y-100622380D01*
X129514285Y-100622380D01*
X128133333Y-100622380D02*
X128704761Y-100622380D01*
X128419047Y-100622380D02*
X128419047Y-99622380D01*
X128514285Y-99765238D01*
X128609523Y-99860476D01*
X128704761Y-99908095D01*
G04 #@! TO.C,J2*
X192133333Y-153322380D02*
X192133333Y-154036666D01*
X192180952Y-154179523D01*
X192276190Y-154274761D01*
X192419047Y-154322380D01*
X192514285Y-154322380D01*
X191704761Y-153417619D02*
X191657142Y-153370000D01*
X191561904Y-153322380D01*
X191323809Y-153322380D01*
X191228571Y-153370000D01*
X191180952Y-153417619D01*
X191133333Y-153512857D01*
X191133333Y-153608095D01*
X191180952Y-153750952D01*
X191752380Y-154322380D01*
X191133333Y-154322380D01*
G04 #@! TO.C,J3*
X130403333Y-153322380D02*
X130403333Y-154036666D01*
X130450952Y-154179523D01*
X130546190Y-154274761D01*
X130689047Y-154322380D01*
X130784285Y-154322380D01*
X130022380Y-153322380D02*
X129403333Y-153322380D01*
X129736666Y-153703333D01*
X129593809Y-153703333D01*
X129498571Y-153750952D01*
X129450952Y-153798571D01*
X129403333Y-153893809D01*
X129403333Y-154131904D01*
X129450952Y-154227142D01*
X129498571Y-154274761D01*
X129593809Y-154322380D01*
X129879523Y-154322380D01*
X129974761Y-154274761D01*
X130022380Y-154227142D01*
G04 #@! TO.C,J5*
X91833333Y-143122380D02*
X91833333Y-143836666D01*
X91880952Y-143979523D01*
X91976190Y-144074761D01*
X92119047Y-144122380D01*
X92214285Y-144122380D01*
X90880952Y-143122380D02*
X91357142Y-143122380D01*
X91404761Y-143598571D01*
X91357142Y-143550952D01*
X91261904Y-143503333D01*
X91023809Y-143503333D01*
X90928571Y-143550952D01*
X90880952Y-143598571D01*
X90833333Y-143693809D01*
X90833333Y-143931904D01*
X90880952Y-144027142D01*
X90928571Y-144074761D01*
X91023809Y-144122380D01*
X91261904Y-144122380D01*
X91357142Y-144074761D01*
X91404761Y-144027142D01*
G04 #@! TO.C,Nh1*
D16*
X155060456Y-122177142D02*
X156330456Y-122177142D01*
X155060456Y-121451428D01*
X156330456Y-121451428D01*
X155060456Y-120846666D02*
X156330456Y-120846666D01*
X155060456Y-120302380D02*
X155725694Y-120302380D01*
X155846646Y-120362857D01*
X155907122Y-120483809D01*
X155907122Y-120665238D01*
X155846646Y-120786190D01*
X155786170Y-120846666D01*
X155060456Y-119032380D02*
X155060456Y-119758095D01*
X155060456Y-119395238D02*
X156330456Y-119395238D01*
X156149027Y-119516190D01*
X156028075Y-119637142D01*
X155967599Y-119758095D01*
D15*
X147660952Y-120574523D02*
X147660952Y-119304523D01*
X147056190Y-120574523D02*
X147056190Y-119304523D01*
X146330476Y-120574523D01*
X146330476Y-119304523D01*
X145725714Y-120090714D02*
X144758095Y-120090714D01*
X143488095Y-120574523D02*
X144213809Y-120574523D01*
X143850952Y-120574523D02*
X143850952Y-119304523D01*
X143971904Y-119485952D01*
X144092857Y-119606904D01*
X144213809Y-119667380D01*
X142399523Y-119727857D02*
X142399523Y-120574523D01*
X142701904Y-119244047D02*
X143004285Y-120151190D01*
X142218095Y-120151190D01*
G04 #@! TO.C,Nh10*
D16*
X125060456Y-122781904D02*
X126330456Y-122781904D01*
X125060456Y-122056190D01*
X126330456Y-122056190D01*
X125060456Y-121451428D02*
X126330456Y-121451428D01*
X125060456Y-120907142D02*
X125725694Y-120907142D01*
X125846646Y-120967619D01*
X125907122Y-121088571D01*
X125907122Y-121270000D01*
X125846646Y-121390952D01*
X125786170Y-121451428D01*
X125060456Y-119637142D02*
X125060456Y-120362857D01*
X125060456Y-120000000D02*
X126330456Y-120000000D01*
X126149027Y-120120952D01*
X126028075Y-120241904D01*
X125967599Y-120362857D01*
X126330456Y-118850952D02*
X126330456Y-118730000D01*
X126269980Y-118609047D01*
X126209503Y-118548571D01*
X126088551Y-118488095D01*
X125846646Y-118427619D01*
X125544265Y-118427619D01*
X125302360Y-118488095D01*
X125181408Y-118548571D01*
X125120932Y-118609047D01*
X125060456Y-118730000D01*
X125060456Y-118850952D01*
X125120932Y-118971904D01*
X125181408Y-119032380D01*
X125302360Y-119092857D01*
X125544265Y-119153333D01*
X125846646Y-119153333D01*
X126088551Y-119092857D01*
X126209503Y-119032380D01*
X126269980Y-118971904D01*
X126330456Y-118850952D01*
D15*
X117660952Y-120574523D02*
X117660952Y-119304523D01*
X117056190Y-120574523D02*
X117056190Y-119304523D01*
X116330476Y-120574523D01*
X116330476Y-119304523D01*
X115725714Y-120090714D02*
X114758095Y-120090714D01*
X113488095Y-120574523D02*
X114213809Y-120574523D01*
X113850952Y-120574523D02*
X113850952Y-119304523D01*
X113971904Y-119485952D01*
X114092857Y-119606904D01*
X114213809Y-119667380D01*
X112399523Y-119727857D02*
X112399523Y-120574523D01*
X112701904Y-119244047D02*
X113004285Y-120151190D01*
X112218095Y-120151190D01*
G04 #@! TO.C,Nm1*
D16*
X225060456Y-122449285D02*
X226330456Y-122449285D01*
X225060456Y-121723571D01*
X226330456Y-121723571D01*
X225060456Y-121118809D02*
X225907122Y-121118809D01*
X225786170Y-121118809D02*
X225846646Y-121058333D01*
X225907122Y-120937380D01*
X225907122Y-120755952D01*
X225846646Y-120635000D01*
X225725694Y-120574523D01*
X225060456Y-120574523D01*
X225725694Y-120574523D02*
X225846646Y-120514047D01*
X225907122Y-120393095D01*
X225907122Y-120211666D01*
X225846646Y-120090714D01*
X225725694Y-120030238D01*
X225060456Y-120030238D01*
X225060456Y-118760238D02*
X225060456Y-119485952D01*
X225060456Y-119123095D02*
X226330456Y-119123095D01*
X226149027Y-119244047D01*
X226028075Y-119365000D01*
X225967599Y-119485952D01*
D15*
X217660952Y-120574523D02*
X217660952Y-119304523D01*
X217056190Y-120574523D02*
X217056190Y-119304523D01*
X216330476Y-120574523D01*
X216330476Y-119304523D01*
X215725714Y-120090714D02*
X214758095Y-120090714D01*
X213488095Y-120574523D02*
X214213809Y-120574523D01*
X213850952Y-120574523D02*
X213850952Y-119304523D01*
X213971904Y-119485952D01*
X214092857Y-119606904D01*
X214213809Y-119667380D01*
X212399523Y-119727857D02*
X212399523Y-120574523D01*
X212701904Y-119244047D02*
X213004285Y-120151190D01*
X212218095Y-120151190D01*
G04 #@! TO.C,Nm10*
D16*
X195060456Y-123054047D02*
X196330456Y-123054047D01*
X195060456Y-122328333D01*
X196330456Y-122328333D01*
X195060456Y-121723571D02*
X195907122Y-121723571D01*
X195786170Y-121723571D02*
X195846646Y-121663095D01*
X195907122Y-121542142D01*
X195907122Y-121360714D01*
X195846646Y-121239761D01*
X195725694Y-121179285D01*
X195060456Y-121179285D01*
X195725694Y-121179285D02*
X195846646Y-121118809D01*
X195907122Y-120997857D01*
X195907122Y-120816428D01*
X195846646Y-120695476D01*
X195725694Y-120635000D01*
X195060456Y-120635000D01*
X195060456Y-119365000D02*
X195060456Y-120090714D01*
X195060456Y-119727857D02*
X196330456Y-119727857D01*
X196149027Y-119848809D01*
X196028075Y-119969761D01*
X195967599Y-120090714D01*
X196330456Y-118578809D02*
X196330456Y-118457857D01*
X196269980Y-118336904D01*
X196209503Y-118276428D01*
X196088551Y-118215952D01*
X195846646Y-118155476D01*
X195544265Y-118155476D01*
X195302360Y-118215952D01*
X195181408Y-118276428D01*
X195120932Y-118336904D01*
X195060456Y-118457857D01*
X195060456Y-118578809D01*
X195120932Y-118699761D01*
X195181408Y-118760238D01*
X195302360Y-118820714D01*
X195544265Y-118881190D01*
X195846646Y-118881190D01*
X196088551Y-118820714D01*
X196209503Y-118760238D01*
X196269980Y-118699761D01*
X196330456Y-118578809D01*
D15*
X187660952Y-120574523D02*
X187660952Y-119304523D01*
X187056190Y-120574523D02*
X187056190Y-119304523D01*
X186330476Y-120574523D01*
X186330476Y-119304523D01*
X185725714Y-120090714D02*
X184758095Y-120090714D01*
X183488095Y-120574523D02*
X184213809Y-120574523D01*
X183850952Y-120574523D02*
X183850952Y-119304523D01*
X183971904Y-119485952D01*
X184092857Y-119606904D01*
X184213809Y-119667380D01*
X182399523Y-119727857D02*
X182399523Y-120574523D01*
X182701904Y-119244047D02*
X183004285Y-120151190D01*
X182218095Y-120151190D01*
G04 #@! TO.C,Q1*
X184747619Y-96604761D02*
X184700000Y-96509523D01*
X184604761Y-96414285D01*
X184461904Y-96271428D01*
X184414285Y-96176190D01*
X184414285Y-96080952D01*
X184652380Y-96128571D02*
X184604761Y-96033333D01*
X184509523Y-95938095D01*
X184319047Y-95890476D01*
X183985714Y-95890476D01*
X183795238Y-95938095D01*
X183700000Y-96033333D01*
X183652380Y-96128571D01*
X183652380Y-96319047D01*
X183700000Y-96414285D01*
X183795238Y-96509523D01*
X183985714Y-96557142D01*
X184319047Y-96557142D01*
X184509523Y-96509523D01*
X184604761Y-96414285D01*
X184652380Y-96319047D01*
X184652380Y-96128571D01*
X184652380Y-97509523D02*
X184652380Y-96938095D01*
X184652380Y-97223809D02*
X183652380Y-97223809D01*
X183795238Y-97128571D01*
X183890476Y-97033333D01*
X183938095Y-96938095D01*
G04 #@! TO.C,R1*
X198752380Y-92733333D02*
X198276190Y-92400000D01*
X198752380Y-92161904D02*
X197752380Y-92161904D01*
X197752380Y-92542857D01*
X197800000Y-92638095D01*
X197847619Y-92685714D01*
X197942857Y-92733333D01*
X198085714Y-92733333D01*
X198180952Y-92685714D01*
X198228571Y-92638095D01*
X198276190Y-92542857D01*
X198276190Y-92161904D01*
X198752380Y-93685714D02*
X198752380Y-93114285D01*
X198752380Y-93400000D02*
X197752380Y-93400000D01*
X197895238Y-93304761D01*
X197990476Y-93209523D01*
X198038095Y-93114285D01*
G04 #@! TO.C,R2*
X139502380Y-90808333D02*
X139026190Y-90475000D01*
X139502380Y-90236904D02*
X138502380Y-90236904D01*
X138502380Y-90617857D01*
X138550000Y-90713095D01*
X138597619Y-90760714D01*
X138692857Y-90808333D01*
X138835714Y-90808333D01*
X138930952Y-90760714D01*
X138978571Y-90713095D01*
X139026190Y-90617857D01*
X139026190Y-90236904D01*
X138597619Y-91189285D02*
X138550000Y-91236904D01*
X138502380Y-91332142D01*
X138502380Y-91570238D01*
X138550000Y-91665476D01*
X138597619Y-91713095D01*
X138692857Y-91760714D01*
X138788095Y-91760714D01*
X138930952Y-91713095D01*
X139502380Y-91141666D01*
X139502380Y-91760714D01*
G04 #@! TO.C,R3*
X198752380Y-88733333D02*
X198276190Y-88400000D01*
X198752380Y-88161904D02*
X197752380Y-88161904D01*
X197752380Y-88542857D01*
X197800000Y-88638095D01*
X197847619Y-88685714D01*
X197942857Y-88733333D01*
X198085714Y-88733333D01*
X198180952Y-88685714D01*
X198228571Y-88638095D01*
X198276190Y-88542857D01*
X198276190Y-88161904D01*
X197752380Y-89066666D02*
X197752380Y-89685714D01*
X198133333Y-89352380D01*
X198133333Y-89495238D01*
X198180952Y-89590476D01*
X198228571Y-89638095D01*
X198323809Y-89685714D01*
X198561904Y-89685714D01*
X198657142Y-89638095D01*
X198704761Y-89590476D01*
X198752380Y-89495238D01*
X198752380Y-89209523D01*
X198704761Y-89114285D01*
X198657142Y-89066666D01*
G04 #@! TO.C,R4*
X194566666Y-101839880D02*
X194900000Y-101363690D01*
X195138095Y-101839880D02*
X195138095Y-100839880D01*
X194757142Y-100839880D01*
X194661904Y-100887500D01*
X194614285Y-100935119D01*
X194566666Y-101030357D01*
X194566666Y-101173214D01*
X194614285Y-101268452D01*
X194661904Y-101316071D01*
X194757142Y-101363690D01*
X195138095Y-101363690D01*
X193709523Y-101173214D02*
X193709523Y-101839880D01*
X193947619Y-100792261D02*
X194185714Y-101506547D01*
X193566666Y-101506547D01*
G04 #@! TO.C,R5*
X192466666Y-91352380D02*
X192800000Y-90876190D01*
X193038095Y-91352380D02*
X193038095Y-90352380D01*
X192657142Y-90352380D01*
X192561904Y-90400000D01*
X192514285Y-90447619D01*
X192466666Y-90542857D01*
X192466666Y-90685714D01*
X192514285Y-90780952D01*
X192561904Y-90828571D01*
X192657142Y-90876190D01*
X193038095Y-90876190D01*
X191561904Y-90352380D02*
X192038095Y-90352380D01*
X192085714Y-90828571D01*
X192038095Y-90780952D01*
X191942857Y-90733333D01*
X191704761Y-90733333D01*
X191609523Y-90780952D01*
X191561904Y-90828571D01*
X191514285Y-90923809D01*
X191514285Y-91161904D01*
X191561904Y-91257142D01*
X191609523Y-91304761D01*
X191704761Y-91352380D01*
X191942857Y-91352380D01*
X192038095Y-91304761D01*
X192085714Y-91257142D01*
G04 #@! TO.C,R6*
X198752380Y-84733333D02*
X198276190Y-84400000D01*
X198752380Y-84161904D02*
X197752380Y-84161904D01*
X197752380Y-84542857D01*
X197800000Y-84638095D01*
X197847619Y-84685714D01*
X197942857Y-84733333D01*
X198085714Y-84733333D01*
X198180952Y-84685714D01*
X198228571Y-84638095D01*
X198276190Y-84542857D01*
X198276190Y-84161904D01*
X197752380Y-85590476D02*
X197752380Y-85400000D01*
X197800000Y-85304761D01*
X197847619Y-85257142D01*
X197990476Y-85161904D01*
X198180952Y-85114285D01*
X198561904Y-85114285D01*
X198657142Y-85161904D01*
X198704761Y-85209523D01*
X198752380Y-85304761D01*
X198752380Y-85495238D01*
X198704761Y-85590476D01*
X198657142Y-85638095D01*
X198561904Y-85685714D01*
X198323809Y-85685714D01*
X198228571Y-85638095D01*
X198180952Y-85590476D01*
X198133333Y-85495238D01*
X198133333Y-85304761D01*
X198180952Y-85209523D01*
X198228571Y-85161904D01*
X198323809Y-85114285D01*
G04 #@! TO.C,R7*
X139282380Y-86533333D02*
X138806190Y-86200000D01*
X139282380Y-85961904D02*
X138282380Y-85961904D01*
X138282380Y-86342857D01*
X138330000Y-86438095D01*
X138377619Y-86485714D01*
X138472857Y-86533333D01*
X138615714Y-86533333D01*
X138710952Y-86485714D01*
X138758571Y-86438095D01*
X138806190Y-86342857D01*
X138806190Y-85961904D01*
X138282380Y-86866666D02*
X138282380Y-87533333D01*
X139282380Y-87104761D01*
G04 #@! TO.C,R8*
X154182380Y-86033333D02*
X153706190Y-85700000D01*
X154182380Y-85461904D02*
X153182380Y-85461904D01*
X153182380Y-85842857D01*
X153230000Y-85938095D01*
X153277619Y-85985714D01*
X153372857Y-86033333D01*
X153515714Y-86033333D01*
X153610952Y-85985714D01*
X153658571Y-85938095D01*
X153706190Y-85842857D01*
X153706190Y-85461904D01*
X153610952Y-86604761D02*
X153563333Y-86509523D01*
X153515714Y-86461904D01*
X153420476Y-86414285D01*
X153372857Y-86414285D01*
X153277619Y-86461904D01*
X153230000Y-86509523D01*
X153182380Y-86604761D01*
X153182380Y-86795238D01*
X153230000Y-86890476D01*
X153277619Y-86938095D01*
X153372857Y-86985714D01*
X153420476Y-86985714D01*
X153515714Y-86938095D01*
X153563333Y-86890476D01*
X153610952Y-86795238D01*
X153610952Y-86604761D01*
X153658571Y-86509523D01*
X153706190Y-86461904D01*
X153801428Y-86414285D01*
X153991904Y-86414285D01*
X154087142Y-86461904D01*
X154134761Y-86509523D01*
X154182380Y-86604761D01*
X154182380Y-86795238D01*
X154134761Y-86890476D01*
X154087142Y-86938095D01*
X153991904Y-86985714D01*
X153801428Y-86985714D01*
X153706190Y-86938095D01*
X153658571Y-86890476D01*
X153610952Y-86795238D01*
G04 #@! TO.C,R9*
X116276236Y-150003486D02*
X115800046Y-149670153D01*
X116276236Y-149432057D02*
X115276236Y-149432057D01*
X115276236Y-149813010D01*
X115323856Y-149908248D01*
X115371475Y-149955867D01*
X115466713Y-150003486D01*
X115609570Y-150003486D01*
X115704808Y-149955867D01*
X115752427Y-149908248D01*
X115800046Y-149813010D01*
X115800046Y-149432057D01*
X116276236Y-150479676D02*
X116276236Y-150670153D01*
X116228617Y-150765391D01*
X116180998Y-150813010D01*
X116038141Y-150908248D01*
X115847665Y-150955867D01*
X115466713Y-150955867D01*
X115371475Y-150908248D01*
X115323856Y-150860629D01*
X115276236Y-150765391D01*
X115276236Y-150574914D01*
X115323856Y-150479676D01*
X115371475Y-150432057D01*
X115466713Y-150384438D01*
X115704808Y-150384438D01*
X115800046Y-150432057D01*
X115847665Y-150479676D01*
X115895284Y-150574914D01*
X115895284Y-150765391D01*
X115847665Y-150860629D01*
X115800046Y-150908248D01*
X115704808Y-150955867D01*
G04 #@! TO.C,R10*
X186742857Y-152952380D02*
X187076190Y-152476190D01*
X187314285Y-152952380D02*
X187314285Y-151952380D01*
X186933333Y-151952380D01*
X186838095Y-152000000D01*
X186790476Y-152047619D01*
X186742857Y-152142857D01*
X186742857Y-152285714D01*
X186790476Y-152380952D01*
X186838095Y-152428571D01*
X186933333Y-152476190D01*
X187314285Y-152476190D01*
X185790476Y-152952380D02*
X186361904Y-152952380D01*
X186076190Y-152952380D02*
X186076190Y-151952380D01*
X186171428Y-152095238D01*
X186266666Y-152190476D01*
X186361904Y-152238095D01*
X185171428Y-151952380D02*
X185076190Y-151952380D01*
X184980952Y-152000000D01*
X184933333Y-152047619D01*
X184885714Y-152142857D01*
X184838095Y-152333333D01*
X184838095Y-152571428D01*
X184885714Y-152761904D01*
X184933333Y-152857142D01*
X184980952Y-152904761D01*
X185076190Y-152952380D01*
X185171428Y-152952380D01*
X185266666Y-152904761D01*
X185314285Y-152857142D01*
X185361904Y-152761904D01*
X185409523Y-152571428D01*
X185409523Y-152333333D01*
X185361904Y-152142857D01*
X185314285Y-152047619D01*
X185266666Y-152000000D01*
X185171428Y-151952380D01*
G04 #@! TO.C,U1*
X189961904Y-84102380D02*
X189961904Y-84911904D01*
X189914285Y-85007142D01*
X189866666Y-85054761D01*
X189771428Y-85102380D01*
X189580952Y-85102380D01*
X189485714Y-85054761D01*
X189438095Y-85007142D01*
X189390476Y-84911904D01*
X189390476Y-84102380D01*
X188390476Y-85102380D02*
X188961904Y-85102380D01*
X188676190Y-85102380D02*
X188676190Y-84102380D01*
X188771428Y-84245238D01*
X188866666Y-84340476D01*
X188961904Y-84388095D01*
G04 #@! TO.C,U2*
D17*
X168785582Y-91716840D02*
X168785582Y-92527307D01*
X168737907Y-92622656D01*
X168690233Y-92670331D01*
X168594884Y-92718005D01*
X168404186Y-92718005D01*
X168308837Y-92670331D01*
X168261162Y-92622656D01*
X168213488Y-92527307D01*
X168213488Y-91716840D01*
X167784417Y-91812190D02*
X167736742Y-91764515D01*
X167641393Y-91716840D01*
X167403021Y-91716840D01*
X167307672Y-91764515D01*
X167259997Y-91812190D01*
X167212323Y-91907539D01*
X167212323Y-92002888D01*
X167259997Y-92145911D01*
X167832091Y-92718005D01*
X167212323Y-92718005D01*
X169523129Y-95718071D02*
X169523129Y-94717693D01*
X169284943Y-94717693D01*
X169142032Y-94765331D01*
X169046758Y-94860605D01*
X168999121Y-94955879D01*
X168951484Y-95146427D01*
X168951484Y-95289338D01*
X168999121Y-95479886D01*
X169046758Y-95575160D01*
X169142032Y-95670434D01*
X169284943Y-95718071D01*
X169523129Y-95718071D01*
X168570388Y-95432249D02*
X168094017Y-95432249D01*
X168665662Y-95718071D02*
X168332202Y-94717693D01*
X167998743Y-95718071D01*
X167712921Y-94812968D02*
X167665284Y-94765331D01*
X167570010Y-94717693D01*
X167331824Y-94717693D01*
X167236550Y-94765331D01*
X167188913Y-94812968D01*
X167141276Y-94908242D01*
X167141276Y-95003516D01*
X167188913Y-95146427D01*
X167760558Y-95718071D01*
X167141276Y-95718071D01*
X166521995Y-94717693D02*
X166426720Y-94717693D01*
X166331446Y-94765331D01*
X166283809Y-94812968D01*
X166236172Y-94908242D01*
X166188535Y-95098790D01*
X166188535Y-95336975D01*
X166236172Y-95527523D01*
X166283809Y-95622797D01*
X166331446Y-95670434D01*
X166426720Y-95718071D01*
X166521995Y-95718071D01*
X166617269Y-95670434D01*
X166664906Y-95622797D01*
X166712543Y-95527523D01*
X166760180Y-95336975D01*
X166760180Y-95098790D01*
X166712543Y-94908242D01*
X166664906Y-94812968D01*
X166617269Y-94765331D01*
X166521995Y-94717693D01*
X165855076Y-94717693D02*
X165235794Y-94717693D01*
X165569254Y-95098790D01*
X165426342Y-95098790D01*
X165331068Y-95146427D01*
X165283431Y-95194064D01*
X165235794Y-95289338D01*
X165235794Y-95527523D01*
X165283431Y-95622797D01*
X165331068Y-95670434D01*
X165426342Y-95718071D01*
X165712165Y-95718071D01*
X165807439Y-95670434D01*
X165855076Y-95622797D01*
X164854698Y-94812968D02*
X164807061Y-94765331D01*
X164711787Y-94717693D01*
X164473602Y-94717693D01*
X164378327Y-94765331D01*
X164330690Y-94812968D01*
X164283053Y-94908242D01*
X164283053Y-95003516D01*
X164330690Y-95146427D01*
X164902335Y-95718071D01*
X164283053Y-95718071D01*
X163854320Y-95336975D02*
X163092127Y-95336975D01*
X162663394Y-95432249D02*
X162187023Y-95432249D01*
X162758668Y-95718071D02*
X162425208Y-94717693D01*
X162091749Y-95718071D01*
X161281919Y-95718071D02*
X161758290Y-95718071D01*
X161758290Y-94717693D01*
G04 #@! TO.C,U3*
D15*
X183282380Y-146428095D02*
X184091904Y-146428095D01*
X184187142Y-146475714D01*
X184234761Y-146523333D01*
X184282380Y-146618571D01*
X184282380Y-146809047D01*
X184234761Y-146904285D01*
X184187142Y-146951904D01*
X184091904Y-146999523D01*
X183282380Y-146999523D01*
X183282380Y-147380476D02*
X183282380Y-147999523D01*
X183663333Y-147666190D01*
X183663333Y-147809047D01*
X183710952Y-147904285D01*
X183758571Y-147951904D01*
X183853809Y-147999523D01*
X184091904Y-147999523D01*
X184187142Y-147951904D01*
X184234761Y-147904285D01*
X184282380Y-147809047D01*
X184282380Y-147523333D01*
X184234761Y-147428095D01*
X184187142Y-147380476D01*
G04 #@! TO.C,Um1*
X225682380Y-133761428D02*
X226491904Y-133761428D01*
X226587142Y-133809047D01*
X226634761Y-133856666D01*
X226682380Y-133951904D01*
X226682380Y-134142380D01*
X226634761Y-134237619D01*
X226587142Y-134285238D01*
X226491904Y-134332857D01*
X225682380Y-134332857D01*
X226682380Y-134809047D02*
X226015714Y-134809047D01*
X226110952Y-134809047D02*
X226063333Y-134856666D01*
X226015714Y-134951904D01*
X226015714Y-135094761D01*
X226063333Y-135190000D01*
X226158571Y-135237619D01*
X226682380Y-135237619D01*
X226158571Y-135237619D02*
X226063333Y-135285238D01*
X226015714Y-135380476D01*
X226015714Y-135523333D01*
X226063333Y-135618571D01*
X226158571Y-135666190D01*
X226682380Y-135666190D01*
X226682380Y-136666190D02*
X226682380Y-136094761D01*
X226682380Y-136380476D02*
X225682380Y-136380476D01*
X225825238Y-136285238D01*
X225920476Y-136190000D01*
X225968095Y-136094761D01*
G04 #@! TO.C,Um2*
X195682380Y-133761428D02*
X196491904Y-133761428D01*
X196587142Y-133809047D01*
X196634761Y-133856666D01*
X196682380Y-133951904D01*
X196682380Y-134142380D01*
X196634761Y-134237619D01*
X196587142Y-134285238D01*
X196491904Y-134332857D01*
X195682380Y-134332857D01*
X196682380Y-134809047D02*
X196015714Y-134809047D01*
X196110952Y-134809047D02*
X196063333Y-134856666D01*
X196015714Y-134951904D01*
X196015714Y-135094761D01*
X196063333Y-135190000D01*
X196158571Y-135237619D01*
X196682380Y-135237619D01*
X196158571Y-135237619D02*
X196063333Y-135285238D01*
X196015714Y-135380476D01*
X196015714Y-135523333D01*
X196063333Y-135618571D01*
X196158571Y-135666190D01*
X196682380Y-135666190D01*
X195777619Y-136094761D02*
X195730000Y-136142380D01*
X195682380Y-136237619D01*
X195682380Y-136475714D01*
X195730000Y-136570952D01*
X195777619Y-136618571D01*
X195872857Y-136666190D01*
X195968095Y-136666190D01*
X196110952Y-136618571D01*
X196682380Y-136047142D01*
X196682380Y-136666190D01*
G04 #@! TO.C,Um3*
X155682380Y-133761428D02*
X156491904Y-133761428D01*
X156587142Y-133809047D01*
X156634761Y-133856666D01*
X156682380Y-133951904D01*
X156682380Y-134142380D01*
X156634761Y-134237619D01*
X156587142Y-134285238D01*
X156491904Y-134332857D01*
X155682380Y-134332857D01*
X156682380Y-134809047D02*
X156015714Y-134809047D01*
X156110952Y-134809047D02*
X156063333Y-134856666D01*
X156015714Y-134951904D01*
X156015714Y-135094761D01*
X156063333Y-135190000D01*
X156158571Y-135237619D01*
X156682380Y-135237619D01*
X156158571Y-135237619D02*
X156063333Y-135285238D01*
X156015714Y-135380476D01*
X156015714Y-135523333D01*
X156063333Y-135618571D01*
X156158571Y-135666190D01*
X156682380Y-135666190D01*
X155682380Y-136047142D02*
X155682380Y-136666190D01*
X156063333Y-136332857D01*
X156063333Y-136475714D01*
X156110952Y-136570952D01*
X156158571Y-136618571D01*
X156253809Y-136666190D01*
X156491904Y-136666190D01*
X156587142Y-136618571D01*
X156634761Y-136570952D01*
X156682380Y-136475714D01*
X156682380Y-136190000D01*
X156634761Y-136094761D01*
X156587142Y-136047142D01*
G04 #@! TO.C,Um4*
X125682380Y-133761428D02*
X126491904Y-133761428D01*
X126587142Y-133809047D01*
X126634761Y-133856666D01*
X126682380Y-133951904D01*
X126682380Y-134142380D01*
X126634761Y-134237619D01*
X126587142Y-134285238D01*
X126491904Y-134332857D01*
X125682380Y-134332857D01*
X126682380Y-134809047D02*
X126015714Y-134809047D01*
X126110952Y-134809047D02*
X126063333Y-134856666D01*
X126015714Y-134951904D01*
X126015714Y-135094761D01*
X126063333Y-135190000D01*
X126158571Y-135237619D01*
X126682380Y-135237619D01*
X126158571Y-135237619D02*
X126063333Y-135285238D01*
X126015714Y-135380476D01*
X126015714Y-135523333D01*
X126063333Y-135618571D01*
X126158571Y-135666190D01*
X126682380Y-135666190D01*
X126015714Y-136570952D02*
X126682380Y-136570952D01*
X125634761Y-136332857D02*
X126349047Y-136094761D01*
X126349047Y-136713809D01*
G04 #@! TO.C,Y1*
X148276190Y-159176190D02*
X148276190Y-159652380D01*
X148609523Y-158652380D02*
X148276190Y-159176190D01*
X147942857Y-158652380D01*
X147085714Y-159652380D02*
X147657142Y-159652380D01*
X147371428Y-159652380D02*
X147371428Y-158652380D01*
X147466666Y-158795238D01*
X147561904Y-158890476D01*
X147657142Y-158938095D01*
G04 #@! TD*
M02*
